<svg width="244" height="180" viewBox="0 0 244 180" fill="none" xmlns="http://www.w3.org/2000/svg">
<path d="M215.459 94.8422C215.459 126.167 198.076 154.05 173.635 167.992C173.635 167.992 173.463 168.164 173.291 168.164C170.193 170.057 166.234 171.778 164.513 172.639H164.341C162.964 173.155 154.702 176.598 153.325 176.598C153.153 176.598 152.981 176.598 152.981 176.77C152.809 176.77 152.637 176.77 152.465 176.942C148.85 177.975 143.687 178.835 142.654 179.007C142.654 179.524 126.819 181.073 113.394 178.147C111.673 178.147 100.657 175.221 91.0187 170.402C63.8242 156.288 45.0635 127.717 45.0635 94.8422C45.0635 47.8543 83.2735 9.81641 130.261 9.81641C177.421 9.81641 215.459 47.8543 215.459 94.8422Z" fill="#2A2E37"/>
<path d="M156.079 129.61V175.909C155.907 175.909 153.67 176.77 153.497 176.77C153.325 176.77 153.153 176.77 153.153 176.942C152.981 176.942 152.809 176.942 152.637 177.114C149.022 178.147 143.859 179.007 142.826 179.18V129.61H156.079Z" fill="#4988FD"/>
<path d="M156.079 129.61V175.909C155.907 175.909 153.67 176.77 153.497 176.77C153.325 176.77 153.153 176.77 153.153 176.942C152.981 176.942 152.809 176.942 152.637 177.114C149.022 178.147 143.859 179.007 142.826 179.18V129.61H156.079Z" fill="#5E6882"/>
<path d="M168.128 129.61V171.09C167.267 171.606 165.718 172.123 164.513 172.811H164.341C162.104 173.844 159.522 174.877 155.047 176.254V129.782H168.128V129.61Z" fill="#2767F4"/>
<path d="M168.128 129.61V171.09C167.267 171.606 165.718 172.123 164.513 172.811H164.341C162.104 173.844 159.522 174.877 155.047 176.254V129.782H168.128V129.61Z" fill="#444A5D"/>
<path opacity="0.1" d="M168.128 147.51V168.164C166.407 169.024 165.03 169.713 165.03 169.713H164.858C161.932 171.262 157.457 172.639 155.563 173.155C155.391 173.155 155.219 173.327 155.047 173.327V168.852C157.112 162.656 160.555 156.288 165.202 150.952C166.062 149.747 167.095 148.542 168.128 147.51Z" fill="#062C78"/>
<path opacity="0.1" d="M168.127 129.61H142.826V144.24H168.127V129.61Z" fill="black"/>
<g filter="url(#filter0_d_657_22354)">
<path d="M222 77.6303V130.298H180.864V130.47H98.4199V35.8059H176.733C177.766 35.6338 178.799 35.6338 180.003 35.6338C181.38 35.6338 182.585 35.6338 183.962 35.8059C185.683 35.978 187.232 36.1501 188.781 36.4944C196.871 38.2155 204.1 42.3464 209.608 47.8541C217.353 55.5994 222 66.0985 222 77.6303Z" fill="url(#paint0_linear_657_22354)"/>
</g>
<path d="M206.166 92.0881C211.329 92.0881 215.632 87.9573 215.632 82.6217C215.632 77.2861 211.329 73.1553 206.166 73.1553C201.002 73.1553 196.699 77.2861 196.699 82.6217C196.699 87.9573 200.83 92.0881 206.166 92.0881Z" fill="#414758"/>
<path d="M207.714 90.8836C213.05 90.8836 217.525 86.7527 217.525 81.4171C217.525 76.0815 213.222 71.9507 207.714 71.9507C202.378 71.9507 197.903 76.0815 197.903 81.4171C197.903 86.7527 202.206 90.8836 207.714 90.8836Z" fill="#606882"/>
<path d="M208.231 90.8836C213.395 90.8836 217.698 86.7527 217.698 81.4171C217.698 76.0815 213.395 71.9507 208.231 71.9507C203.068 71.9507 198.765 76.0815 198.765 81.4171C198.765 86.7527 202.895 90.8836 208.231 90.8836Z" fill="#8B93AA"/>
<path d="M208.231 85.0317C210.296 85.0317 211.845 83.4826 211.845 81.4172C211.845 79.3518 210.296 77.8027 208.231 77.8027C206.165 77.8027 204.616 79.3518 204.616 81.4172C204.616 83.4826 206.165 85.0317 208.231 85.0317Z" fill="#CED7E2"/>
<path d="M139.384 73.4998V130.47H55.3906V73.4998C55.3906 55.5996 68.1273 40.4533 84.8226 36.6667C87.5765 35.9783 90.3304 35.8062 93.2564 35.8062H101.862C120.795 35.8062 136.286 49.5755 139.212 67.6478C139.212 69.369 139.384 71.4344 139.384 73.4998Z" fill="#414758"/>
<path opacity="0.7" d="M139.384 81.9338L138.868 68.1644C135.942 50.0921 120.279 36.3228 101.519 36.3228H92.9127C89.9867 36.3228 87.2329 36.667 84.479 37.1833L83.4463 38.0439L104.617 125.307L139.04 127.201L139.384 81.9338Z" fill="url(#paint1_linear_657_22354)"/>
<path d="M139.212 67.6478C136.286 49.5755 120.623 35.8062 101.862 35.8062H93.2564C90.3304 35.8062 87.5765 35.9783 84.8226 36.6667C67.9552 40.4533 55.3906 55.4275 55.3906 73.4998V130.47H139.384V73.4998C139.384 71.4344 139.212 69.369 139.212 67.6478ZM135.941 127.028H58.833V73.4998C58.833 57.665 70.0206 43.5514 85.6832 40.1091C87.9207 39.5927 90.1583 39.4206 93.2564 39.4206H101.862C118.73 39.4206 133.015 51.4688 135.769 68.1641C135.769 68.8526 135.769 69.7132 135.769 70.5738C135.769 71.6065 135.769 72.6392 135.769 73.6719V127.028H135.941Z" fill="#77819B"/>
<path opacity="0.6" d="M119.762 162.656C117.352 166.271 114.426 172.123 112.705 176.942C112.533 177.286 112.361 177.803 112.361 178.147C111.156 177.975 109.951 177.63 108.747 177.286C107.714 174.877 107.025 172.295 107.025 172.295C107.714 171.434 108.23 170.746 108.919 170.057C112.189 166.099 115.631 163.345 119.762 162.656Z" fill="#5E6882"/>
<path d="M113.394 178.319C113.05 178.319 112.706 178.147 112.362 178.147C111.157 177.975 109.952 177.631 108.747 177.286C107.887 177.114 107.198 176.77 106.338 176.598C105.993 176.426 105.649 176.426 105.305 176.254C104.961 176.082 104.616 176.082 104.1 175.909C99.625 174.533 95.3221 172.639 91.1913 170.574C86.8883 163.345 84.4787 154.567 80.3479 142.347C80.3479 142.175 80.3479 142.175 80.1758 142.002C80.1758 142.002 80.52 142.002 81.3806 142.347C81.897 142.691 82.7575 143.035 83.7902 143.724C85.8556 145.101 89.1259 147.51 93.9451 151.469C99.9692 156.46 105.133 163.861 108.747 169.885C110.296 172.639 111.673 175.049 112.706 176.942C113.05 177.286 113.222 177.803 113.394 178.319Z" fill="#5E6882"/>
<path d="M106.337 176.426C105.993 176.253 105.649 176.253 105.305 176.081C104.96 175.909 104.616 175.909 104.1 175.737C96.1824 159.902 87.2323 149.747 82.0688 143.895C81.5525 143.207 81.0361 142.691 80.5198 142.174C80.5198 142.002 80.5198 142.002 80.3477 141.83C80.3477 141.83 80.6919 141.83 81.5525 142.174C82.0688 142.519 82.9294 142.863 83.9621 143.551C89.2977 149.747 98.4199 160.247 106.337 176.426Z" fill="#2A2E37"/>
<path d="M186.716 139.42C186.716 139.42 186.544 139.765 186.2 140.453C184.134 144.24 177.249 156.804 173.979 167.82C173.807 167.82 173.807 167.992 173.635 167.992C173.635 167.992 173.463 168.164 173.291 168.164C170.193 170.057 166.234 171.778 164.513 172.639H164.341C159.177 175.049 153.669 176.598 153.325 176.598C155.907 168.164 159.694 160.591 165.029 154.222C166.062 153.018 167.095 151.813 168.127 150.78C168.299 150.608 168.471 150.436 168.644 150.264C173.119 145.789 177.766 142.863 182.241 140.969C182.757 140.797 183.274 140.453 183.79 140.281C184.306 139.937 185.167 139.765 186.027 139.42C186.372 139.593 186.544 139.42 186.716 139.42Z" fill="#5E6882"/>
<path d="M186.544 139.076C186.544 139.076 186.372 139.248 186.199 139.765C186.199 139.937 186.027 139.937 186.027 140.109C177.077 148.026 170.02 161.279 165.545 172.295C165.201 172.467 164.857 172.639 164.513 172.811H164.341C163.996 172.983 163.48 173.155 163.136 173.327C163.308 172.983 163.48 172.811 163.48 172.811C165.717 167.303 171.742 151.641 182.241 141.142C182.585 140.797 182.929 140.453 183.273 140.109C184.478 139.765 185.511 139.42 186.544 139.076Z" fill="#2A2E37"/>
<g filter="url(#filter1_d_657_22354)">
<path d="M139.9 124.446V130.47H25.0981C23.3769 130.47 22 129.093 22 127.544C22 125.823 23.3769 124.446 25.0981 124.446H139.9Z" fill="url(#paint2_linear_657_22354)"/>
</g>
<path d="M163.48 79.0073H208.747C210.124 79.0073 211.157 80.04 211.157 81.417C211.157 82.7939 210.124 83.8266 208.747 83.8266H163.48V79.0073Z" fill="#A9AFC3"/>
<path d="M161.931 55.9441C162.447 55.2557 163.652 55.5999 163.652 56.6326V78.8357V83.9992H145.063V56.6326C145.063 55.772 146.096 55.2557 146.785 55.9441L152.809 63.173C153.669 64.2057 155.218 64.2057 156.079 63.173L161.931 55.9441Z" fill="#A9AFC3"/>
<path d="M41.1048 17.2178C38.8673 27.7169 37.6624 38.3882 37.4903 49.0594C37.3182 58.8701 37.3182 69.7135 40.2442 79.1799C43.8587 91.2281 55.0463 103.276 68.8156 99.6618C76.3888 97.5964 82.585 91.056 84.3061 82.9665C85.3389 77.803 83.7898 71.7789 79.659 68.6808C75.1839 65.7548 68.6435 66.4432 64.6848 70.0577C60.3819 73.6721 58.6607 79.1799 58.8328 84.5155C59.0049 89.8511 61.0704 95.0147 63.48 99.6618C70.7089 112.915 108.23 105.858 136.113 102.588" stroke="#667089" stroke-width="2" stroke-miterlimit="10" stroke-dasharray="4 4"/>
<path d="M27.6801 8.61168C28.5406 12.054 32.3272 13.2588 36.1138 11.1934C40.2446 9.12803 42.9985 7.75109 42.1379 4.48087C41.2773 1.38276 37.4907 1.03853 33.1878 0.694294C27.8522 0.177943 26.8195 5.16934 27.6801 8.61168Z" fill="#AFB7C9"/>
<path d="M57.8008 11.7101C56.4239 14.6361 51.9489 16.3572 48.8508 13.4313C45.4084 10.3331 42.8267 8.26775 44.2036 4.99752C45.5805 2.07153 48.3344 2.93212 53.4979 3.7927C57.8008 4.82541 59.522 8.61198 57.8008 11.7101Z" fill="#AFB7C9"/>
<path d="M44.0312 0.177982C41.7937 -0.166252 39.7283 1.03857 39.0398 3.10397C38.8677 3.62032 38.5234 4.48091 38.5234 5.34149C38.0071 9.64442 39.384 13.431 41.9658 13.7752C44.5475 14.1195 47.1293 10.8492 47.8178 6.89055C47.8178 5.68573 47.8178 4.82514 47.8178 3.96456C47.6456 1.89915 46.0966 0.522216 44.0312 0.177982C44.0312 0.177982 43.8591 0.177982 44.0312 0.177982Z" fill="#474E61"/>
<path d="M146.096 130.471H144.031C144.891 132.536 145.407 135.806 145.752 139.765C143.342 140.281 138.867 139.593 136.113 137.528C135.253 134.429 134.564 132.02 133.876 130.471H131.638C132.154 131.331 133.015 134.085 134.048 138.044C130.261 141.658 127.852 140.281 120.45 136.667C119.762 136.323 118.901 135.806 117.869 135.462C116.148 133.397 114.771 131.676 113.394 130.471H110.123C111.5 131.331 113.394 133.052 115.459 135.462C104.616 143.724 94.805 140.109 89.4694 138.216C88.6088 137.872 87.9204 137.7 87.2319 137.528C81.3799 134.429 76.0443 132.02 71.5693 130.471H64.6846V130.643C73.1183 132.02 92.9118 142.175 110.64 153.706V153.879H110.812C124.237 162.657 136.457 172.295 141.105 179.352L142.826 179.18V179.352V179.18C143.17 179.18 143.686 179.008 144.031 179.008C144.375 179.008 144.719 178.836 144.891 178.836C144.547 177.287 143.342 171.09 141.793 163.517C142.654 164.034 143.686 164.55 145.063 164.55C145.407 164.55 145.752 164.55 145.924 164.55C145.752 170.058 145.58 175.221 145.235 179.008C145.924 178.836 146.612 178.836 147.301 178.663C147.817 170.058 149.366 140.97 146.096 130.471ZM145.752 141.83C145.924 144.412 146.096 147.166 146.096 149.92C143.858 150.953 142.481 149.748 140.416 147.51C139.728 146.65 138.867 145.789 138.006 145.273C137.662 143.552 137.146 142.003 136.802 140.453C139.555 141.658 143.17 142.175 145.752 141.83ZM136.457 148.199C137.146 151.469 138.006 155.083 138.695 158.698C138.179 158.698 137.834 159.042 137.49 159.214C136.802 159.731 135.769 160.247 133.359 159.558C132.499 158.009 131.638 156.46 130.778 155.083C129.745 153.19 128.54 151.469 127.679 149.92C131.638 150.092 134.22 149.576 136.457 148.199ZM134.564 140.281C135.08 142.003 135.425 143.896 135.941 145.961C134.048 147.51 131.638 148.199 126.302 147.51C124.237 144.412 122.344 141.486 120.623 139.077C126.819 142.175 130.261 143.724 134.564 140.281ZM96.0099 142.347C97.5589 142.691 99.108 142.863 100.829 142.863C105.648 142.863 110.984 141.486 116.664 137.183C119.074 140.281 121.655 144.068 124.237 148.199C121.139 151.125 115.975 151.469 111.5 151.813C106.337 148.371 101.001 145.273 96.0099 142.347ZM114.254 153.534C118.213 153.19 122.516 152.502 125.27 149.92C127.335 153.19 129.401 156.805 131.466 160.247C130.605 161.968 128.884 162.312 125.098 161.452C121.827 158.698 118.041 156.116 114.254 153.534ZM128.54 163.861C130.089 163.861 131.638 163.517 132.843 162.14C135.08 166.099 137.318 170.058 139.039 173.156C136.113 170.23 132.499 167.132 128.54 163.861ZM141.965 174.877C140.072 171.262 137.49 166.443 134.736 161.796C136.629 161.968 137.662 161.28 138.523 160.935C138.695 160.935 138.695 160.763 138.867 160.763C138.867 160.763 139.039 160.935 139.211 161.108C140.244 165.755 141.105 170.574 141.965 174.877ZM145.924 162.14C144.031 162.657 142.481 161.624 141.105 160.247C140.416 156.46 139.555 152.674 138.695 148.887L138.867 149.059C140.588 150.953 142.826 153.19 146.096 152.33C146.096 155.428 146.096 158.87 145.924 162.14Z" fill="#444A5E"/>
<path d="M202.758 158.991C206.104 158.991 208.817 156.278 208.817 152.932C208.817 149.586 206.104 146.873 202.758 146.873C199.412 146.873 196.699 149.586 196.699 152.932C196.699 156.278 199.412 158.991 202.758 158.991Z" fill="#2A2E37"/>
<path d="M191.555 30.1541C193.84 30.1541 195.693 28.3015 195.693 26.0162C195.693 23.731 193.84 21.8784 191.555 21.8784C189.27 21.8784 187.417 23.731 187.417 26.0162C187.417 28.3015 189.27 30.1541 191.555 30.1541Z" fill="#2A2E37"/>
<path d="M35.5341 157.066C39.7782 157.066 43.2187 153.626 43.2187 149.382C43.2187 145.138 39.7782 141.697 35.5341 141.697C31.2901 141.697 27.8496 145.138 27.8496 149.382C27.8496 153.626 31.2901 157.066 35.5341 157.066Z" fill="#2A2E37"/>
<defs>
<filter id="filter0_d_657_22354" x="76.4199" y="24.6338" width="167.58" height="138.836" filterUnits="userSpaceOnUse" color-interpolation-filters="sRGB">
<feFlood flood-opacity="0" result="BackgroundImageFix"/>
<feColorMatrix in="SourceAlpha" type="matrix" values="0 0 0 0 0 0 0 0 0 0 0 0 0 0 0 0 0 0 127 0" result="hardAlpha"/>
<feOffset dy="11"/>
<feGaussianBlur stdDeviation="11"/>
<feColorMatrix type="matrix" values="0 0 0 0 0 0 0 0 0 0 0 0 0 0 0 0 0 0 0.27 0"/>
<feBlend mode="normal" in2="BackgroundImageFix" result="effect1_dropShadow_657_22354"/>
<feBlend mode="normal" in="SourceGraphic" in2="effect1_dropShadow_657_22354" result="shape"/>
</filter>
<filter id="filter1_d_657_22354" x="0" y="113.446" width="161.9" height="50.0239" filterUnits="userSpaceOnUse" color-interpolation-filters="sRGB">
<feFlood flood-opacity="0" result="BackgroundImageFix"/>
<feColorMatrix in="SourceAlpha" type="matrix" values="0 0 0 0 0 0 0 0 0 0 0 0 0 0 0 0 0 0 127 0" result="hardAlpha"/>
<feOffset dy="11"/>
<feGaussianBlur stdDeviation="11"/>
<feColorMatrix type="matrix" values="0 0 0 0 0 0 0 0 0 0 0 0 0 0 0 0 0 0 0.27 0"/>
<feBlend mode="normal" in2="BackgroundImageFix" result="effect1_dropShadow_657_22354"/>
<feBlend mode="normal" in="SourceGraphic" in2="effect1_dropShadow_657_22354" result="shape"/>
</filter>
<linearGradient id="paint0_linear_657_22354" x1="160.17" y1="33.4401" x2="160.17" y2="131.493" gradientUnits="userSpaceOnUse">
<stop stop-color="#5E6882"/>
<stop offset="0.9964" stop-color="#5E6882"/>
</linearGradient>
<linearGradient id="paint1_linear_657_22354" x1="137.257" y1="80.6832" x2="101.79" y2="82.3355" gradientUnits="userSpaceOnUse">
<stop stop-color="#42465A"/>
<stop offset="1" stop-color="#575E84" stop-opacity="0"/>
</linearGradient>
<linearGradient id="paint2_linear_657_22354" x1="80.9117" y1="124.307" x2="80.9117" y2="130.535" gradientUnits="userSpaceOnUse">
<stop stop-color="#5E6882"/>
<stop offset="0.9964" stop-color="#5E6882"/>
</linearGradient>
</defs>
</svg>
