<svg width="20" height="20" viewBox="0 0 20 20" fill="none" xmlns="http://www.w3.org/2000/svg">
<path fill-rule="evenodd" clip-rule="evenodd" d="M9.0026 3.44728C10.474 1.97591 12.8596 1.97591 14.3309 3.44728C15.8023 4.91866 15.8023 7.30423 14.3309 8.77561L9.88649 13.2201C9.02876 14.0778 7.63811 14.0778 6.78038 13.2201C5.92265 12.3623 5.92265 10.9717 6.78038 10.114L11.2248 5.66951C11.4689 5.42543 11.8646 5.42543 12.1087 5.66951C12.3528 5.91358 12.3528 6.30931 12.1087 6.55339L7.66426 10.9978C7.29469 11.3674 7.29469 11.9666 7.66426 12.3362C8.03384 12.7057 8.63303 12.7057 9.0026 12.3362L13.4471 7.89173C14.4303 6.90851 14.4303 5.31439 13.447 4.33117C12.4638 3.34794 10.8697 3.34794 9.88649 4.33117L5.44204 8.77562C3.84517 10.3725 3.84517 12.9615 5.44204 14.5584C7.03891 16.1553 9.62795 16.1553 11.2248 14.5584L15.6693 10.114C15.9133 9.86987 16.3091 9.86987 16.5532 10.114C16.7972 10.358 16.7972 10.7538 16.5532 10.9978L12.1087 15.4423C10.0237 17.5273 6.64318 17.5273 4.55816 15.4423C2.47313 13.3573 2.47313 9.97676 4.55815 7.89173L9.0026 3.44728Z" fill="white"/>
</svg>
