<svg width="20" height="20" viewBox="0 0 20 20" fill="none" xmlns="http://www.w3.org/2000/svg">
<g id="Icon/Heart/Off">
<path id="Subtract" fill-rule="evenodd" clip-rule="evenodd" d="M10.0003 4.60352L10.6379 3.91857C12.3984 2.02714 15.2527 2.02714 17.0133 3.91857C18.7738 5.81 18.7738 8.87661 17.0133 10.768L11.2754 16.9326C10.5712 17.6891 9.42945 17.6891 8.72524 16.9326L2.98738 10.768C1.22686 8.87662 1.22686 5.81 2.98738 3.91857C4.7479 2.02714 7.60227 2.02714 9.36278 3.91857L10.0003 4.60352ZM14.167 4.375C13.8218 4.375 13.542 4.65482 13.542 5C13.542 5.34518 13.8218 5.625 14.167 5.625C14.7423 5.625 15.2087 6.09137 15.2087 6.66667C15.2087 7.01184 15.4885 7.29167 15.8337 7.29167C16.1788 7.29167 16.4587 7.01184 16.4587 6.66667C16.4587 5.40101 15.4326 4.375 14.167 4.375Z" fill="#0385CA"/>
</g>
</svg>
