<svg width="20" height="20" viewBox="0 0 20 20" fill="none" xmlns="http://www.w3.org/2000/svg">
<path fill-rule="evenodd" clip-rule="evenodd" d="M9.99996 4.60352L10.6375 3.91857C12.398 2.02714 15.2524 2.02714 17.0129 3.91857C18.7734 5.81 18.7734 8.87661 17.0129 10.768L11.275 16.9326C10.5708 17.6891 9.42908 17.6891 8.72488 16.9326L2.98701 10.768C1.2265 8.87662 1.2265 5.81 2.98702 3.91857C4.74753 2.02714 7.6019 2.02714 9.36242 3.91857L9.99996 4.60352ZM14.1666 4.375C13.8214 4.375 13.5416 4.65482 13.5416 5C13.5416 5.34518 13.8214 5.625 14.1666 5.625C14.7419 5.625 15.2083 6.09137 15.2083 6.66667C15.2083 7.01184 15.4881 7.29167 15.8333 7.29167C16.1785 7.29167 16.4583 7.01184 16.4583 6.66667C16.4583 5.40101 15.4323 4.375 14.1666 4.375Z" fill="#0385CA"/>
</svg>
