<svg width="20" height="20" viewBox="0 0 20 20" fill="none" xmlns="http://www.w3.org/2000/svg">
<path d="M1.66602 6.66634C1.66602 4.82539 3.1584 3.33301 4.99935 3.33301H10.8327C12.6736 3.33301 14.166 4.82539 14.166 6.66634V13.333C14.166 15.174 12.6736 16.6663 10.8327 16.6663H4.99935C3.1584 16.6663 1.66602 15.174 1.66602 13.333V6.66634Z" stroke="white" stroke-width="1.5"/>
<path d="M14.166 7.77745L15.4501 6.40774C16.4835 5.30548 18.3327 6.03675 18.3327 7.54764V12.4517C18.3327 13.9626 16.4835 14.6939 15.4501 13.5916L14.166 12.2219V7.77745Z" stroke="white" stroke-width="1.5"/>
<path d="M10.8327 8.33301C10.8327 9.25348 10.0865 9.99968 9.16602 9.99968C8.24554 9.99968 7.49935 9.25348 7.49935 8.33301C7.49935 7.41253 8.24554 6.66634 9.16602 6.66634C10.0865 6.66634 10.8327 7.41253 10.8327 8.33301Z" stroke="white" stroke-width="1.5"/>
</svg>
