<svg width="18" height="16" viewBox="0 0 18 16" fill="none" xmlns="http://www.w3.org/2000/svg">
<g id="chat">
<path id="Subtract" fill-rule="evenodd" clip-rule="evenodd" d="M8.1665 0.5H9.83317C13.9753 0.5 17.3332 3.85786 17.3332 8C17.3332 12.1421 13.9753 15.5 9.83317 15.5H3.99984C2.15889 15.5 0.666504 14.0076 0.666504 12.1667V8C0.666504 3.85786 4.02437 0.5 8.1665 0.5ZM5.6665 10.2917C5.32133 10.2917 5.0415 10.0118 5.0415 9.66667C5.0415 9.32149 5.32133 9.04167 5.6665 9.04167H8.99984C9.34502 9.04167 9.62484 9.32149 9.62484 9.66667C9.62484 10.0118 9.34502 10.2917 8.99984 10.2917H5.6665ZM5.6665 6.95833C5.32133 6.95833 5.0415 6.67851 5.0415 6.33333C5.0415 5.98816 5.32133 5.70833 5.6665 5.70833H12.3332C12.6783 5.70833 12.9582 5.98816 12.9582 6.33333C12.9582 6.67851 12.6783 6.95833 12.3332 6.95833H5.6665Z" fill="white"/>
</g>
</svg>
