<svg width="9" height="17" viewBox="0 0 9 17" fill="none" xmlns="http://www.w3.org/2000/svg">
<g id="dollar">
<path id="Combo shape" fill-rule="evenodd" clip-rule="evenodd" d="M4.49967 0.666016C4.84485 0.666016 5.12467 0.945838 5.12467 1.29102V2.38765C6.7826 2.68285 8.04134 4.1316 8.04134 5.87435C8.04134 6.21953 7.76152 6.49935 7.41634 6.49935C7.07116 6.49935 6.79134 6.21953 6.79134 5.87435C6.79134 4.82537 6.08655 3.941 5.12467 3.66895V8.22099C6.7826 8.51618 8.04134 9.96493 8.04134 11.7077C8.04134 13.4504 6.7826 14.8992 5.12467 15.1944V16.291C5.12467 16.6362 4.84485 16.916 4.49967 16.916C4.1545 16.916 3.87467 16.6362 3.87467 16.291V15.1944C2.21675 14.8992 0.958008 13.4504 0.958008 11.7077C0.958008 11.3625 1.23783 11.0827 1.58301 11.0827C1.92819 11.0827 2.20801 11.3625 2.20801 11.7077C2.20801 12.7567 2.9128 13.641 3.87467 13.9131V9.36104C2.21675 9.06585 0.958008 7.6171 0.958008 5.87435C0.958008 4.1316 2.21675 2.68285 3.87467 2.38765V1.29102C3.87467 0.945838 4.1545 0.666016 4.49967 0.666016ZM3.87467 3.66895C2.9128 3.941 2.20801 4.82537 2.20801 5.87435C2.20801 6.92333 2.9128 7.8077 3.87467 8.07975V3.66895ZM5.12467 9.50228V13.9131C6.08655 13.641 6.79134 12.7567 6.79134 11.7077C6.79134 10.6587 6.08655 9.77433 5.12467 9.50228Z" fill="white"/>
</g>
</svg>
