<svg width="20" height="20" viewBox="0 0 20 20" fill="none" xmlns="http://www.w3.org/2000/svg">
<g id="Icon/Eye/Off">
<path id="Vector" d="M3.33366 3.33337L16.667 16.6667M11.667 11.8635C11.2247 12.2593 10.6406 12.5 10.0003 12.5C8.61961 12.5 7.50033 11.3808 7.50033 10C7.50033 9.35975 7.74104 8.77567 8.1369 8.33337M16.3401 13.0065C16.8163 12.5919 17.2422 12.175 17.6089 11.7891C18.5752 10.7724 18.5752 9.22768 17.6089 8.21096C15.9791 6.49615 13.1799 4.16671 10.0003 4.16671C9.25751 4.16671 8.53547 4.29384 7.84424 4.51057M5.41699 5.66953C4.20152 6.44541 3.16502 7.39736 2.39175 8.21096C1.42541 9.22768 1.42541 10.7724 2.39175 11.7891C4.02157 13.5039 6.82073 15.8334 10.0003 15.8334C11.5571 15.8334 13.0226 15.275 14.3044 14.5037" stroke="white" stroke-width="1.5" stroke-linecap="round"/>
</g>
</svg>
