<svg width="20" height="20" viewBox="0 0 20 20" fill="none" xmlns="http://www.w3.org/2000/svg">
<g id="Icon/Eye/Solid">
<path id="Subtract" fill-rule="evenodd" clip-rule="evenodd" d="M17.6084 11.7892C18.5748 10.7724 18.5748 9.22772 17.6084 8.211C15.9786 6.49619 13.1794 4.16675 9.99984 4.16675C6.82024 4.16675 4.02108 6.49619 2.39126 8.211C1.42492 9.22772 1.42492 10.7724 2.39126 11.7892C4.02108 13.504 6.82024 15.8334 9.99984 15.8334C13.1794 15.8334 15.9786 13.504 17.6084 11.7892ZM9.99984 12.5001C11.3805 12.5001 12.4998 11.3808 12.4998 10.0001C12.4998 8.61937 11.3805 7.50008 9.99984 7.50008C8.61913 7.50008 7.49984 8.61937 7.49984 10.0001C7.49984 11.3808 8.61913 12.5001 9.99984 12.5001Z" fill="white"/>
</g>
</svg>
