<svg width="17" height="16" viewBox="0 0 17 16" fill="none" xmlns="http://www.w3.org/2000/svg">
<g id="like">
<path id="combo shape" fill-rule="evenodd" clip-rule="evenodd" d="M7.62205 15.5H5.28959C3.45412 15.5 1.85419 14.2508 1.40902 12.4701L0.287751 7.98507C-0.0278224 6.72278 0.926894 5.5 2.22804 5.5H6.33315L5.59098 4.38675C4.48339 2.72536 5.67437 0.5 7.67111 0.5H7.99982L11.2014 6.10276C11.2877 6.25386 11.3331 6.42487 11.3331 6.5989V13.2981C11.3331 13.6325 11.166 13.9447 10.8879 14.1302L9.84085 14.8282C9.18378 15.2662 8.41175 15.5 7.62205 15.5ZM12.5832 6.54167V13.625C12.5832 14.6605 13.4226 15.5 14.4582 15.5C15.4937 15.5 16.3332 14.6605 16.3332 13.625V6.54166C16.3332 5.50613 15.4937 4.66667 14.4582 4.66667C13.4226 4.66667 12.5832 5.50613 12.5832 6.54167Z" fill="white"/>
</g>
</svg>
