<svg width="20" height="18" viewBox="0 0 20 18" fill="none" xmlns="http://www.w3.org/2000/svg">
<g id="like">
<path id="combo shape" fill-rule="evenodd" clip-rule="evenodd" d="M9.78888 18H6.12309C4.28761 18 2.68768 16.7508 2.24252 14.9701L0.621247 8.48507C0.305674 7.22278 1.26039 6 2.56153 6H7.99998L6.59115 3.88675C5.48355 2.22536 6.67453 0 8.67127 0H9.99998L13.8682 6.76943C13.9546 6.92052 14 7.09154 14 7.26556V15.4648C14 15.7992 13.8329 16.1114 13.5547 16.2969L12.0077 17.3282C11.3506 17.7662 10.5786 18 9.78888 18ZM18 5H17.5C16.3954 5 15.5 5.89543 15.5 7V16C15.5 17.1046 16.3954 18 17.5 18H18C19.1045 18 20 17.1046 20 16V7C20 5.89543 19.1045 5 18 5Z" fill="white"/>
</g>
</svg>
