<svg width="18" height="16" viewBox="0 0 18 16" fill="none" xmlns="http://www.w3.org/2000/svg">
<g id="mail">
<path id="Subtract" fill-rule="evenodd" clip-rule="evenodd" d="M3.99984 0.5C2.15889 0.5 0.666504 1.99238 0.666504 3.83333V12.1667C0.666504 14.0076 2.15889 15.5 3.99984 15.5H13.9998C15.8408 15.5 17.3332 14.0076 17.3332 12.1667V3.83333C17.3332 1.99238 15.8408 0.5 13.9998 0.5H3.99984ZM4.34653 4.1466C4.05932 3.95513 3.67128 4.03274 3.47981 4.31994C3.28834 4.60715 3.36595 4.99519 3.65315 5.18666L6.80415 7.28733C8.13376 8.17373 9.86593 8.17373 11.1955 7.28733L14.3465 5.18666C14.6337 4.99519 14.7113 4.60715 14.5199 4.31994C14.3284 4.03274 13.9404 3.95513 13.6532 4.1466L10.5022 6.24727C9.59243 6.85375 8.40726 6.85375 7.49753 6.24727L4.34653 4.1466Z" fill="#A2A8B7"/>
</g>
</svg>
