<svg width="24" height="24" viewBox="0 0 24 24" fill="none" xmlns="http://www.w3.org/2000/svg">
<g id="microphone-mute">
<path id="Union" fill-rule="evenodd" clip-rule="evenodd" d="M0.881281 0.590266C0.539573 0.931975 0.539573 1.48599 0.881281 1.8277L7.33333 8.27976V12.0006C7.33333 14.578 9.42267 16.6673 12 16.6673C13.0475 16.6673 14.0143 16.3222 14.7931 15.7395L15.8324 16.7788C14.7832 17.6215 13.4505 18.1257 12 18.1257C8.61726 18.1257 5.875 15.3834 5.875 12.0007V10.834C5.875 10.3507 5.48325 9.95898 5 9.95898C4.51675 9.95898 4.125 10.3507 4.125 10.834V12.0007C4.125 16.0541 7.18754 19.3923 11.125 19.8276V21.9173H8.5C8.01675 21.9173 7.625 22.3091 7.625 22.7923C7.625 23.2756 8.01675 23.6673 8.5 23.6673H15.5C15.9832 23.6673 16.375 23.2756 16.375 22.7923C16.375 22.3091 15.9832 21.9173 15.5 21.9173H12.875V19.8276C14.4662 19.6517 15.9145 19.0017 17.0756 18.022L21.8813 22.8277C22.223 23.1694 22.777 23.1694 23.1187 22.8277C23.4604 22.486 23.4604 21.932 23.1187 21.5903L2.11872 0.590266C1.77701 0.248557 1.22299 0.248557 0.881281 0.590266ZM19.1555 15.2937L17.8092 13.9474C18.014 13.3358 18.125 12.6812 18.125 12.0007V10.834C18.125 10.3507 18.5168 9.95898 19 9.95898C19.4832 9.95898 19.875 10.3507 19.875 10.834V12.0007C19.875 13.1763 19.6174 14.2918 19.1555 15.2937ZM7.52716 3.66538L16.6075 12.7457C16.6464 12.5031 16.6667 12.2542 16.6667 12.0007V5.00065C16.6667 2.42332 14.5773 0.333984 12 0.333984C9.88669 0.333984 8.10148 1.73872 7.52716 3.66538Z" fill="white"/>
</g>
</svg>
