<svg width="401" height="336" viewBox="0 0 401 336" fill="none" xmlns="http://www.w3.org/2000/svg">
<path d="M386.588 174.206C386.588 219.265 368.248 259.882 338.841 289.075C310.066 317.95 270.224 335.403 226.271 335.403C182.635 335.403 142.793 317.633 113.702 289.075C84.295 259.882 65.9551 219.265 65.9551 174.206C65.9551 85.0408 137.734 13.0103 226.271 13.0103C314.809 13.0103 386.588 85.3582 386.588 174.206Z" fill="#23272E"/>
<path d="M372.675 68.5396C379.835 68.5396 385.64 62.7149 385.64 55.5297C385.64 48.3445 379.835 42.5198 372.675 42.5198C365.515 42.5198 359.711 48.3445 359.711 55.5297C359.711 62.7149 365.515 68.5396 372.675 68.5396Z" fill="#23272E"/>
<path d="M391.646 17.7697C396.536 17.7697 400.5 13.7918 400.5 8.88483C400.5 3.97787 396.536 0 391.646 0C386.756 0 382.792 3.97787 382.792 8.88483C382.792 13.7918 386.756 17.7697 391.646 17.7697Z" fill="#23272E"/>
<path d="M71.0139 68.223C75.9037 68.223 79.8677 64.2452 79.8677 59.3382C79.8677 54.4312 75.9037 50.4534 71.0139 50.4534C66.1241 50.4534 62.1602 54.4312 62.1602 59.3382C62.1602 64.2452 66.1241 68.223 71.0139 68.223Z" fill="#23272E"/>
<path d="M16.9427 239.574C26.0238 239.574 33.3854 232.186 33.3854 223.073C33.3854 213.96 26.0238 206.573 16.9427 206.573C7.86165 206.573 0.5 213.96 0.5 223.073C0.5 232.186 7.86165 239.574 16.9427 239.574Z" fill="#23272E"/>
<g filter="url(#filter0_d_665_27964)">
<path d="M369.57 81.8126V257.62C369.57 264.938 363.733 270.735 356.578 270.735H92.6888C85.5337 270.735 79.6025 264.843 79.6025 257.62V81.8126C79.6025 74.5902 85.4396 68.6982 92.6888 68.6982H356.578C363.733 68.6982 369.57 74.5902 369.57 81.8126Z" fill="#474D5C"/>
</g>
<path d="M369.57 81.8126V101.484H79.6025V81.8126C79.6025 74.5902 85.4396 68.6982 92.6888 68.6982H356.578C363.733 68.6982 369.57 74.5902 369.57 81.8126Z" fill="#353A45"/>
<path opacity="0.6" d="M140.139 221.224H309.036" stroke="#23272E" stroke-width="2" stroke-miterlimit="10" stroke-linecap="round" stroke-linejoin="round"/>
<path opacity="0.6" d="M166.781 239.375H282.392" stroke="#23272E" stroke-width="2" stroke-miterlimit="10" stroke-linecap="round" stroke-linejoin="round"/>
<path d="M196.342 170.096V179.884H190.411V189.292H179.302V179.884H154.824V168.671L177.513 136.835H190.505V170.191H196.342V170.096ZM179.302 149.854L165.18 170.096H179.302V149.854Z" fill="#A2A8B7"/>
<path d="M224.209 190.338C212.347 190.338 201.897 179.884 201.897 162.969C201.897 146.053 212.253 135.6 224.209 135.6C236.166 135.6 246.522 146.053 246.522 162.969C246.522 179.884 236.166 190.338 224.209 190.338ZM224.209 180.264C229.764 180.264 235.319 174.657 235.319 163.064C235.319 151.47 229.764 145.863 224.209 145.863C218.655 145.863 213.1 151.47 213.1 163.064C213.1 174.657 218.655 180.264 224.209 180.264Z" fill="#A2A8B7"/>
<path d="M294.442 170.096V179.884H288.511V189.292H277.402V179.884H252.924V168.671L275.613 136.835H288.605V170.191H294.442V170.096ZM277.307 149.854L263.186 170.096H277.307V149.854Z" fill="#A2A8B7"/>
<path d="M97.8672 89.9851C100.571 89.9851 102.763 87.7726 102.763 85.0434C102.763 82.3142 100.571 80.1018 97.8672 80.1018C95.1635 80.1018 92.9717 82.3142 92.9717 85.0434C92.9717 87.7726 95.1635 89.9851 97.8672 89.9851Z" fill="#979EAF"/>
<path d="M113.872 89.9851C116.576 89.9851 118.768 87.7726 118.768 85.0434C118.768 82.3142 116.576 80.1018 113.872 80.1018C111.168 80.1018 108.977 82.3142 108.977 85.0434C108.977 87.7726 111.168 89.9851 113.872 89.9851Z" fill="#979EAF"/>
<path d="M129.782 89.9851C132.486 89.9851 134.678 87.7726 134.678 85.0434C134.678 82.3142 132.486 80.1018 129.782 80.1018C127.079 80.1018 124.887 82.3142 124.887 85.0434C124.887 87.7726 127.079 89.9851 129.782 89.9851Z" fill="#979EAF"/>
<path d="M356.751 309.556L293.678 246.312L308.137 231.802L371.16 295.096L356.751 309.556Z" fill="#6B738A"/>
<path d="M378.674 331.809L330.31 283.275C326.272 279.222 326.272 272.618 330.31 268.565C334.349 264.512 340.93 264.512 344.969 268.565L393.333 317.099C397.372 321.152 397.372 327.756 393.333 331.809C389.295 335.862 382.713 335.862 378.674 331.809Z" fill="#6B738A"/>
<path d="M375.235 334.912L313.01 272.469C311.564 271.018 311.564 268.666 313.01 267.165L328.916 251.204C330.362 249.753 332.705 249.753 334.201 251.204L396.426 313.647C397.872 315.098 397.872 317.45 396.426 318.951L380.521 334.912C379.025 336.363 376.681 336.363 375.235 334.912Z" fill="#A2A8B7"/>
<path d="M222.278 42.5198C156.263 42.5198 102.764 96.2072 102.764 162.453C102.764 228.65 156.263 282.387 222.228 282.387C288.243 282.387 341.742 228.7 341.742 162.453C341.742 96.2072 288.243 42.5198 222.278 42.5198ZM222.278 260.172C169.277 260.172 126.347 216.391 126.347 162.403C126.347 108.416 169.277 64.6852 222.278 64.6852C275.279 64.6852 318.209 108.466 318.209 162.453C318.209 216.441 275.229 260.172 222.278 260.172Z" fill="#A2A8B7"/>
<defs>
<filter id="filter0_d_665_27964" x="57.6025" y="57.6982" width="333.968" height="246.036" filterUnits="userSpaceOnUse" color-interpolation-filters="sRGB">
<feFlood flood-opacity="0" result="BackgroundImageFix"/>
<feColorMatrix in="SourceAlpha" type="matrix" values="0 0 0 0 0 0 0 0 0 0 0 0 0 0 0 0 0 0 127 0" result="hardAlpha"/>
<feOffset dy="11"/>
<feGaussianBlur stdDeviation="11"/>
<feColorMatrix type="matrix" values="0 0 0 0 0 0 0 0 0 0 0 0 0 0 0 0 0 0 0.27 0"/>
<feBlend mode="normal" in2="BackgroundImageFix" result="effect1_dropShadow_665_27964"/>
<feBlend mode="normal" in="SourceGraphic" in2="effect1_dropShadow_665_27964" result="shape"/>
</filter>
</defs>
</svg>
