<svg width="12" height="14" viewBox="0 0 12 14" fill="none" xmlns="http://www.w3.org/2000/svg">
<g id="reward">
<path id="Combo shape" fill-rule="evenodd" clip-rule="evenodd" d="M6.9383 0.679008C6.39752 0.218163 5.60215 0.218162 5.06138 0.679008L4.58451 1.08539C4.35278 1.28287 4.06465 1.40222 3.76115 1.42644L3.13659 1.47628C2.42834 1.5328 1.86593 2.09521 1.80941 2.80346L1.75957 3.42802C1.73535 3.73152 1.616 4.01965 1.41852 4.25138L1.01214 4.72825C0.551293 5.26902 0.551292 6.06439 1.01214 6.60517L1.41852 7.08203C1.616 7.31377 1.73535 7.6019 1.75957 7.9054L1.80941 8.52995C1.86593 9.2382 2.42834 9.80062 3.13659 9.85713L3.76114 9.90697C4.06465 9.93119 4.35278 10.0505 4.58451 10.248L5.06138 10.6544C5.60215 11.1153 6.39752 11.1153 6.9383 10.6544L7.41516 10.248C7.6469 10.0505 7.93503 9.93119 8.23853 9.90697L8.86308 9.85713C9.57133 9.80062 10.1337 9.2382 10.1903 8.52995L10.2401 7.9054C10.2643 7.6019 10.3837 7.31377 10.5812 7.08203L10.9875 6.60517C11.4484 6.06439 11.4484 5.26902 10.9875 4.72825L10.5812 4.25138C10.3837 4.01965 10.2643 3.73152 10.2401 3.42802L10.1903 2.80346C10.1337 2.09521 9.57133 1.5328 8.86308 1.47628L8.23853 1.42644C7.93503 1.40222 7.6469 1.28287 7.41516 1.08539L6.9383 0.679008ZM2.6665 12.682V10.7909C2.79306 10.822 2.92352 10.8433 3.05704 10.8539L3.6816 10.9038C3.77533 10.9112 3.86432 10.9481 3.93589 11.0091L4.41276 11.4155C5.32729 12.1948 6.67238 12.1948 7.58691 11.4155L8.06378 11.0091C8.13535 10.9481 8.22434 10.9112 8.31808 10.9038L8.94263 10.8539C9.07615 10.8433 9.20662 10.822 9.33317 10.7909V12.682C9.33317 13.1536 8.85682 13.4761 8.41891 13.301L6.24743 12.4324C6.08849 12.3688 5.91118 12.3688 5.75224 12.4324L3.58076 13.301C3.14285 13.4761 2.6665 13.1536 2.6665 12.682Z" fill="white"/>
</g>
</svg>
