<svg width="20" height="20" viewBox="0 0 20 20" fill="none" xmlns="http://www.w3.org/2000/svg">
<g id="Icon/Search" clip-path="url(#clip0_282_2108)">
<path id="Vector" d="M15.9468 14.8863C15.6539 14.5934 15.1791 14.5934 14.8862 14.8863C14.5933 15.1792 14.5933 15.6541 14.8862 15.947L15.9468 14.8863ZM17.8028 18.8636C18.0957 19.1565 18.5706 19.1565 18.8635 18.8636C19.1564 18.5707 19.1564 18.0959 18.8635 17.803L17.8028 18.8636ZM18.2498 9.58329C18.2498 4.79682 14.3696 0.916626 9.58317 0.916626V2.41663C13.5412 2.41663 16.7498 5.62525 16.7498 9.58329H18.2498ZM9.58317 0.916626C4.7967 0.916626 0.916504 4.79682 0.916504 9.58329H2.4165C2.4165 5.62525 5.62513 2.41663 9.58317 2.41663V0.916626ZM0.916504 9.58329C0.916504 14.3698 4.7967 18.25 9.58317 18.25V16.75C5.62513 16.75 2.4165 13.5413 2.4165 9.58329H0.916504ZM9.58317 18.25C14.3696 18.25 18.2498 14.3698 18.2498 9.58329H16.7498C16.7498 13.5413 13.5412 16.75 9.58317 16.75V18.25ZM14.8862 15.947L17.8028 18.8636L18.8635 17.803L15.9468 14.8863L14.8862 15.947Z" fill="white"/>
</g>
<defs>
<clipPath id="clip0_282_2108">
<rect width="20" height="20" fill="white"/>
</clipPath>
</defs>
</svg>
