<svg width="20" height="20" viewBox="0 0 20 20" fill="none" xmlns="http://www.w3.org/2000/svg">
<path fill-rule="evenodd" clip-rule="evenodd" d="M7.8779 3.55093L17.2368 8.22752C18.6988 8.95809 18.6988 11.0432 17.2368 11.7738L7.87789 16.4504C6.21335 17.2821 4.42231 15.5717 5.17814 13.8721L6.54178 10.8058C6.56808 10.7466 6.59135 10.6865 6.61159 10.6257L9.99996 10.6257C10.3451 10.6257 10.625 10.3458 10.625 10.0007C10.625 9.65547 10.3451 9.37565 9.99996 9.37565L6.61159 9.37565C6.59136 9.31479 6.56808 9.25467 6.54178 9.19551L5.17814 6.12919C4.42231 4.4296 6.21335 2.71916 7.8779 3.55093ZM1.04163 8.33398C1.04163 7.98881 1.32145 7.70898 1.66663 7.70898H3.33329C3.67847 7.70898 3.95829 7.98881 3.95829 8.33398C3.95829 8.67916 3.67847 8.95898 3.33329 8.95898H1.66663C1.32145 8.95898 1.04163 8.67916 1.04163 8.33398ZM1.66663 11.0423C1.32145 11.0423 1.04163 11.3221 1.04163 11.6673C1.04163 12.0125 1.32145 12.2923 1.66663 12.2923H3.33329C3.67847 12.2923 3.95829 12.0125 3.95829 11.6673C3.95829 11.3221 3.67847 11.0423 3.33329 11.0423H1.66663Z" fill="white"/>
</svg>
