<svg width="18" height="18" viewBox="0 0 18 18" fill="none" xmlns="http://www.w3.org/2000/svg">
<g id="share-rectangle">
<path id="Subtract" fill-rule="evenodd" clip-rule="evenodd" d="M4.00033 0.666992C2.15938 0.666992 0.666992 2.15938 0.666992 4.00033V14.0003C0.666992 15.8413 2.15938 17.3337 4.00033 17.3337H14.0003C15.8413 17.3337 17.3337 15.8413 17.3337 14.0003V4.00033C17.3337 2.15938 15.8413 0.666992 14.0003 0.666992H4.00033ZM10.1803 5.14703C9.89314 4.95556 9.5051 5.03317 9.31363 5.32037C9.12216 5.60758 9.19977 5.99562 9.48697 6.18709L10.5091 6.8685C9.37951 7.07016 8.30207 7.46474 7.40364 8.06369C6.00959 8.99306 5.04199 10.4246 5.04199 12.3337C5.04199 12.6789 5.32181 12.9587 5.66699 12.9587C6.01217 12.9587 6.29199 12.6789 6.29199 12.3337C6.29199 10.9095 6.99106 9.84106 8.09701 9.10376C8.92724 8.55027 9.98301 8.18991 11.1122 8.03921L10.147 9.48704C9.95549 9.77424 10.0331 10.1623 10.3203 10.3538C10.6075 10.5452 10.9956 10.4676 11.187 10.1804L12.8537 7.68041C13.0452 7.39321 12.9676 7.00516 12.6803 6.81369L10.1803 5.14703Z" fill="white"/>
</g>
</svg>
