<svg width="20" height="20" viewBox="0 0 20 20" fill="none" xmlns="http://www.w3.org/2000/svg">
<path d="M7.49996 12.4993C7.49996 12.4993 8.43746 13.3327 9.99996 13.3327C11.5625 13.3327 12.5 12.4993 12.5 12.4993M14.1666 8.33268C14.1666 8.79292 13.7935 9.16602 13.3333 9.16602C12.8731 9.16602 12.5 8.79292 12.5 8.33268C12.5 7.87245 12.8731 7.49935 13.3333 7.49935C13.7935 7.49935 14.1666 7.87245 14.1666 8.33268ZM18.3333 9.99935C18.3333 14.6017 14.6023 18.3327 9.99996 18.3327C5.39759 18.3327 1.66663 14.6017 1.66663 9.99935C1.66663 5.39698 5.39759 1.66602 9.99996 1.66602C14.6023 1.66602 18.3333 5.39698 18.3333 9.99935ZM7.49996 8.33268C7.49996 8.79292 7.12686 9.16602 6.66663 9.16602C6.20639 9.16602 5.83329 8.79292 5.83329 8.33268C5.83329 7.87245 6.20639 7.49935 6.66663 7.49935C7.12686 7.49935 7.49996 7.87245 7.49996 8.33268Z" stroke="white" stroke-linecap="round" stroke-linejoin="round"/>
</svg>
