<svg width="20" height="20" viewBox="0 0 20 20" fill="none" xmlns="http://www.w3.org/2000/svg">
<path fill-rule="evenodd" clip-rule="evenodd" d="M10.3914 12.9419L12.8914 15.4419C13.1354 15.686 13.5312 15.686 13.7752 15.4419L16.2752 12.9419C16.5193 12.6979 16.5193 12.3021 16.2752 12.0581C16.0312 11.814 15.6354 11.814 15.3914 12.0581L13.9583 13.4911V5C13.9583 4.65482 13.6785 4.375 13.3333 4.375C12.9881 4.375 12.7083 4.65482 12.7083 5L12.7083 13.4911L11.2752 12.0581C11.0312 11.814 10.6354 11.814 10.3914 12.0581C10.1473 12.3021 10.1473 12.6979 10.3914 12.9419ZM7.10857 4.55806C6.86449 4.31398 6.46876 4.31398 6.22468 4.55806L3.72468 7.05806C3.48061 7.30214 3.48061 7.69786 3.72468 7.94194C3.96876 8.18602 4.36449 8.18602 4.60857 7.94194L6.04163 6.50888V15C6.04163 15.3452 6.32145 15.625 6.66663 15.625C7.0118 15.625 7.29163 15.3452 7.29163 15V6.50888L8.72468 7.94194C8.96876 8.18602 9.36449 8.18602 9.60857 7.94194C9.85264 7.69786 9.85264 7.30214 9.60857 7.05806L7.10857 4.55806Z" fill="white"/>
</svg>
