<svg width="149" height="148" viewBox="0 0 149 148" fill="none" xmlns="http://www.w3.org/2000/svg">
<g clip-path="url(#clip0_535_10328)">
<path d="M146.055 42.2031C145.317 41.8078 144.486 41.62 143.65 41.6597C142.814 41.6994 142.005 41.9652 141.308 42.4286L120.75 56.1071V41.625C120.75 39.1718 119.775 36.819 118.041 35.0843C116.306 33.3496 113.953 32.375 111.5 32.375H65.8628C64.6362 32.375 63.4598 32.8623 62.5924 33.7297C61.7251 34.597 61.2378 35.7734 61.2378 37C61.2378 38.2266 61.7251 39.403 62.5924 40.2704C63.4598 41.1377 64.6362 41.625 65.8628 41.625H111.5V92.2861C111.5 93.5127 111.987 94.6891 112.855 95.5565C113.722 96.4238 114.898 96.9111 116.125 96.9111C117.352 96.9111 118.528 96.4238 119.395 95.5565C120.263 94.6891 120.75 93.5127 120.75 92.2861V91.9219L141.308 105.629C142.072 106.125 142.965 106.384 143.875 106.375C145.102 106.375 146.278 105.888 147.145 105.02C148.013 104.153 148.5 102.977 148.5 101.75V46.25C148.494 45.4179 148.264 44.6027 147.834 43.8904C147.403 43.1782 146.789 42.5953 146.055 42.2031ZM139.25 93.1071L120.75 80.7756V67.2244L139.25 54.9219V93.1071ZM31.6725 20.0147C31.2663 19.5569 30.7733 19.1842 30.2221 18.9183C29.6709 18.6524 29.0723 18.4985 28.4612 18.4657C27.85 18.4328 27.2384 18.5215 26.6618 18.7268C26.0852 18.932 25.5551 19.2496 25.1022 19.6612C24.6492 20.0729 24.2825 20.5703 24.0232 21.1247C23.7639 21.6791 23.6173 22.2794 23.5917 22.8909C23.5662 23.5024 23.6623 24.1129 23.8744 24.687C24.0865 25.2611 24.4105 25.7874 24.8275 26.2353L30.4064 32.375H19C16.5467 32.375 14.194 33.3496 12.4593 35.0843C10.7246 36.819 9.75 39.1718 9.75 41.625V106.375C9.75 108.828 10.7246 111.181 12.4593 112.916C14.194 114.65 16.5467 115.625 19 115.625H106.089L117.327 127.985C117.734 128.443 118.227 128.816 118.778 129.082C119.329 129.348 119.928 129.502 120.539 129.534C121.15 129.567 121.762 129.479 122.338 129.273C122.915 129.068 123.445 128.75 123.898 128.339C124.351 127.927 124.717 127.43 124.977 126.875C125.236 126.321 125.383 125.721 125.408 125.109C125.434 124.498 125.338 123.887 125.126 123.313C124.913 122.739 124.59 122.213 124.173 121.765L31.6725 20.0147ZM19 106.375V41.625H38.8181L97.6828 106.375H19Z" fill="#23272E"/>
</g>
<defs>
<clipPath id="clip0_535_10328">
<rect width="148" height="148" fill="white" transform="translate(0.5)"/>
</clipPath>
</defs>
</svg>
