<svg width="28" height="28" viewBox="0 0 28 28" fill="none" xmlns="http://www.w3.org/2000/svg">
<path d="M16.3334 14.8747C16.3334 13.7471 15.2887 12.833 14.0001 12.833C12.7114 12.833 11.6667 13.7471 11.6667 14.8747C11.6667 16.0023 12.7114 16.9163 14.0001 16.9163C15.2887 16.9163 16.3334 17.8304 16.3334 18.958C16.3334 20.0856 15.2887 20.9997 14.0001 20.9997C12.7114 20.9997 11.6667 20.0856 11.6667 18.958" stroke="#A2A8B7" stroke-width="1.5" stroke-linecap="round"/>
<path d="M14 11.083V12.833" stroke="#A2A8B7" stroke-width="1.5" stroke-linecap="round" stroke-linejoin="round"/>
<path d="M14 21V22.75" stroke="#A2A8B7" stroke-width="1.5" stroke-linecap="round" stroke-linejoin="round"/>
<path d="M6.79904 12.2696C7.61572 9.81958 9.90856 8.16699 12.4911 8.16699H15.5087C18.0913 8.16699 20.3841 9.81957 21.2008 12.2696L23.0341 17.7696C24.3292 21.6548 21.4374 25.667 17.342 25.667H10.6578C6.56247 25.667 3.67065 21.6548 4.96571 17.7696L6.79904 12.2696Z" stroke="#A2A8B7" stroke-width="1.5" stroke-linejoin="round"/>
<path d="M16.4335 8.16634L11.5664 8.16634L9.93178 6.29146C8.32944 4.45357 10.1987 1.70648 12.5382 2.46116L13.6206 2.81034C13.867 2.88984 14.1328 2.88984 14.3793 2.81034L15.4617 2.46116C17.8011 1.70648 19.6704 4.45357 18.0681 6.29146L16.4335 8.16634Z" stroke="#A2A8B7" stroke-width="1.5" stroke-linejoin="round"/>
</svg>
