<svg width="28" height="28" viewBox="0 0 28 28" fill="none" xmlns="http://www.w3.org/2000/svg">
<ellipse cx="14" cy="12.833" rx="3.5" ry="3.5" stroke="#A2A8B7" strokeWidth="1.5"/>
<path d="M19.8333 17.5V15.75C19.8333 14.7835 20.6168 14 21.5833 14V14C22.5498 14 23.3333 14.7835 23.3333 15.75V17.5" stroke="#A2A8B7" strokeWidth="1.5" strokeLinecap="round" strokeLinejoin="round"/>
<path d="M23.6667 17.5H19.5C18.3954 17.5 17.5 18.3954 17.5 19.5V21.3333C17.5 22.4379 18.3954 23.3333 19.5 23.3333H23.6667C24.7712 23.3333 25.6667 22.4379 25.6667 21.3333V19.5C25.6667 18.3954 24.7712 17.5 23.6667 17.5Z" stroke="#A2A8B7" strokeWidth="1.5" strokeLinecap="round" strokeLinejoin="round"/>
<path d="M13.9999 21.0003C9.54848 21.0003 5.62966 17.7391 3.34791 15.3384C1.99503 13.915 1.99503 11.7524 3.34791 10.3289C5.62966 7.92821 9.54848 4.66699 13.9999 4.66699C18.4514 4.66699 22.3702 7.92821 24.6519 10.3289C25.3278 11.0401 25.6661 11.9357 25.6666 12.8315" stroke="#A2A8B7" strokeWidth="1.5" strokeLinecap="round"/>
</svg>
