<svg width="28" height="28" viewBox="0 0 28 28" fill="none" xmlns="http://www.w3.org/2000/svg">
<path d="M14.9897 4.66602H13.0099C11.9165 4.66602 11.0301 5.50175 11.0301 6.53268C11.0301 7.71243 9.76785 8.46247 8.73168 7.89843L8.62644 7.84114C7.67951 7.32567 6.46868 7.63157 5.92197 8.52438L4.93207 10.141C4.38536 11.0338 4.7098 12.1754 5.65673 12.6909C6.6934 13.2552 6.69339 14.7435 5.65673 15.3078C4.7098 15.8233 4.38536 16.9649 4.93207 17.8577L5.92197 19.4743C6.46868 20.3671 7.67951 20.673 8.62644 20.1576L8.73168 20.1003C9.76785 19.5362 11.0301 20.2863 11.0301 21.466C11.0301 22.4969 11.9165 23.3327 13.0099 23.3327H14.9897C16.0831 23.3327 16.9695 22.4969 16.9695 21.466C16.9695 20.2863 18.2318 19.5362 19.268 20.1003L19.3732 20.1575C20.3201 20.673 21.531 20.3671 22.0777 19.4743L23.0676 17.8577C23.6143 16.9649 23.2899 15.8233 22.3429 15.3078C21.3063 14.7435 21.3063 13.2552 22.3429 12.6909C23.2899 12.1754 23.6143 11.0338 23.0676 10.141L22.0777 8.5244C21.531 7.63159 20.3201 7.32569 19.3732 7.84115L19.268 7.89844C18.2318 8.46249 16.9695 7.71243 16.9695 6.53268C16.9695 5.50175 16.0831 4.66602 14.9897 4.66602Z" stroke="#A2A8B7" stroke-width="1.5" stroke-linejoin="round"/>
<circle cx="14" cy="14" r="3.5" stroke="#A2A8B7" stroke-width="1.5"/>
</svg>
