<svg width="20" height="20" viewBox="0 0 20 20" fill="none" xmlns="http://www.w3.org/2000/svg">
<path fill-rule="evenodd" clipRule="evenodd" d="M9.01018 0.666992H10.99C12.0834 0.666992 12.9698 1.50273 12.9698 2.53366C12.9698 3.71341 14.2321 4.46346 15.2682 3.89941L15.3735 3.84213C16.3204 3.32666 17.5312 3.63256 18.0779 4.52538L19.0678 6.14196C19.6145 7.03477 19.2901 8.1764 18.3432 8.69187C17.3065 9.25618 17.3065 10.7445 18.3432 11.3088C19.2901 11.8242 19.6145 12.9659 19.0678 13.8587L18.0779 15.4753C17.5312 16.3681 16.3204 16.674 15.3735 16.1585L15.2682 16.1012C14.2321 15.5372 12.9698 16.2872 12.9698 17.467C12.9698 18.4979 12.0834 19.3337 10.99 19.3337H9.01018C7.91676 19.3337 7.03037 18.4979 7.03037 17.467C7.03037 16.2872 5.76811 15.5372 4.73193 16.1012L4.62669 16.1585C3.67976 16.674 2.46893 16.3681 1.92222 15.4753L0.932322 13.8587C0.385614 12.9659 0.710055 11.8243 1.65698 11.3088C2.69365 10.7445 2.69365 9.25617 1.65698 8.69186C0.710057 8.17639 0.385615 7.03475 0.932323 6.14194L1.92223 4.52536C2.46893 3.63255 3.67976 3.32665 4.62669 3.84211L4.73193 3.8994C5.76811 4.46345 7.03037 3.7134 7.03037 2.53366C7.03037 1.50273 7.91676 0.666992 9.01018 0.666992ZM10.0001 13.5003C11.9331 13.5003 13.5001 11.9333 13.5001 10.0003C13.5001 8.06733 11.9331 6.50033 10.0001 6.50033C8.06709 6.50033 6.50009 8.06733 6.50009 10.0003C6.50009 11.9333 8.06709 13.5003 10.0001 13.5003Z" fill="white"/>
</svg>
