<svg width="28" height="28" viewBox="0 0 28 28" fill="none" xmlns="http://www.w3.org/2000/svg">
<g id="Icon/Camera Video/Outline">
<g id="Vector">
<path d="M2.3335 9.33329C2.3335 6.75596 4.42283 4.66663 7.00016 4.66663H15.1668C17.7442 4.66663 19.8335 6.75596 19.8335 9.33329V18.6666C19.8335 21.244 17.7442 23.3333 15.1668 23.3333H7.00016C4.42283 23.3333 2.3335 21.244 2.3335 18.6666V9.33329Z" stroke="#A2A8B7" stroke-width="1.5"/>
<path d="M19.8335 10.8888L21.6312 8.97125C23.078 7.42809 25.6668 8.45186 25.6668 10.5671V17.4328C25.6668 19.5481 23.078 20.5718 21.6312 19.0287L19.8335 17.1111V10.8888Z" stroke="#A2A8B7" stroke-width="1.5"/>
<path d="M15.1668 11.6666C15.1668 12.9553 14.1222 14 12.8335 14C11.5448 14 10.5002 12.9553 10.5002 11.6666C10.5002 10.378 11.5448 9.33329 12.8335 9.33329C14.1222 9.33329 15.1668 10.378 15.1668 11.6666Z" stroke="#A2A8B7" stroke-width="1.5"/>
</g>
</g>
</svg>
