<svg width="28" height="28" viewBox="0 0 28 28" fill="none" xmlns="http://www.w3.org/2000/svg">
<g id="Icon/Help/Outline">
<path id="Vector" d="M11.6667 10.5C11.6667 9.21134 12.7113 8.16667 14 8.16667C15.2887 8.16667 16.3333 9.21134 16.3333 10.5C16.3333 10.9645 16.1976 11.3973 15.9636 11.7609C15.2663 12.8446 14 13.878 14 15.1667V15.75M14 18.6667V19.8333M3.5 10.654V17.3461C3.5 19.1233 4.42436 20.7656 5.92487 21.6542L11.5751 25.0003C13.0756 25.8889 14.9244 25.8889 16.4249 25.0003L22.0751 21.6542C23.5756 20.7656 24.5 19.1233 24.5 17.3461V10.654C24.5 8.87674 23.5756 7.23453 22.0751 6.34592L16.4249 2.99983C14.9244 2.11122 13.0756 2.11122 11.5751 2.99983L5.92487 6.34592C4.42436 7.23452 3.5 8.87674 3.5 10.654Z" stroke="#A2A8B7" stroke-width="1.5" stroke-linecap="round"/>
</g>
</svg>
