<svg width="28" height="28" viewBox="0 0 28 28" fill="none" xmlns="http://www.w3.org/2000/svg">
<g id="Icon/Home/Solid">
<path id="Subtract" fill-rule="evenodd" clip-rule="evenodd" d="M24.5 11.8421V20.9614C24.5 23.56 22.4107 25.6667 19.8333 25.6667H8.16667C5.58934 25.6667 3.5 23.5601 3.5 20.9614V11.8421C3.5 10.4293 4.12959 9.09129 5.21484 8.19765L11.0482 3.39428C12.766 1.97974 15.234 1.97974 16.9518 3.39428L22.7852 8.19765C23.8704 9.09129 24.5 10.4293 24.5 11.8421ZM11.6667 20.125C11.1834 20.125 10.7917 20.5168 10.7917 21C10.7917 21.4833 11.1834 21.875 11.6667 21.875H16.3333C16.8166 21.875 17.2083 21.4833 17.2083 21C17.2083 20.5168 16.8166 20.125 16.3333 20.125H11.6667Z" fill="white"/>
</g>
</svg>
