<svg width="28" height="28" viewBox="0 0 28 28" fill="none" xmlns="http://www.w3.org/2000/svg">
<g id="Icon/Live">
<path id="Vector" d="M6.92766 22.0937C6.54383 21.7609 6.18306 21.4027 5.84782 21.0217C4.14589 19.0726 3.20898 16.5795 3.20898 14C3.20898 11.4205 4.14589 8.92744 5.84782 6.97826C6.18306 6.59722 6.54383 6.23906 6.92766 5.90625" stroke="white" stroke-width="1.5" stroke-linecap="round" stroke-linejoin="round"/>
<path id="Vector_2" d="M9.80029 8.88647C9.44684 9.16227 9.12783 9.47897 8.85002 9.82985C7.87977 11.0062 7.34961 12.4797 7.34961 14C7.34961 15.5204 7.87977 16.9939 8.85002 18.1702C9.12783 18.521 9.44684 18.8378 9.80029 19.1136" stroke="white" stroke-width="1.5" stroke-linecap="round" stroke-linejoin="round"/>
<path id="Vector_3" d="M16.5693 14C16.5585 14.4723 16.4165 14.9323 16.1589 15.3293C15.9431 15.6724 15.6513 15.962 15.3059 16.1763C14.903 16.4218 14.4395 16.5517 13.9668 16.5517C13.4942 16.5517 13.0306 16.4218 12.6278 16.1763C12.2822 15.962 11.9906 15.6724 11.7747 15.3293C11.5274 14.9295 11.3965 14.4694 11.3965 14C11.3965 13.5308 11.5274 13.0706 11.7747 12.6707C11.9906 12.3277 12.2822 12.038 12.6278 11.8238C13.0306 11.5783 13.4942 11.4484 13.9668 11.4484C14.4395 11.4484 14.903 11.5783 15.3059 11.8238C15.6513 12.038 15.9431 12.3277 16.1589 12.6707C16.4165 13.0678 16.5585 13.5279 16.5693 14Z" stroke="white" stroke-width="1.5" stroke-linecap="round" stroke-linejoin="round"/>
<path id="Vector_4" d="M18.2012 19.1136C18.5547 18.8378 18.8736 18.521 19.1514 18.1702C20.1217 16.9939 20.6519 15.5204 20.6519 14C20.6519 12.4797 20.1217 11.0062 19.1514 9.82985C18.8736 9.47897 18.5547 9.16227 18.2012 8.88647" stroke="white" stroke-width="1.5" stroke-linecap="round" stroke-linejoin="round"/>
<path id="Vector_5" d="M21.0723 5.90625C21.4561 6.23906 21.8168 6.59722 22.152 6.97826C23.8539 8.92744 24.7909 11.4205 24.7909 14C24.7909 16.5795 23.8539 19.0726 22.152 21.0217C21.8168 21.4027 21.4561 21.7609 21.0723 22.0937" stroke="white" stroke-width="1.5" stroke-linecap="round" stroke-linejoin="round"/>
</g>
</svg>
