<svg width="28" height="28" viewBox="0 0 28 28" fill="none" xmlns="http://www.w3.org/2000/svg">
<g id="Icon/Star/Outline">
<path id="Star 2" d="M11.7051 3.81669C12.6439 1.83894 15.3564 1.83893 16.2952 3.81668L17.9177 7.23475C18.2905 8.02011 19.0111 8.56447 19.8447 8.69041L23.4727 9.23852C25.5719 9.55566 26.4102 12.2378 24.8911 13.7773L22.2659 16.4379C21.6627 17.0492 21.3874 17.93 21.5298 18.7932L22.1496 22.55C22.5082 24.7238 20.3137 26.3814 18.4361 25.3551L15.1911 23.5814C14.4455 23.1739 13.5548 23.1739 12.8092 23.5814L9.56422 25.3551C7.68662 26.3814 5.49216 24.7238 5.85075 22.55L6.47048 18.7932C6.61288 17.93 6.33763 17.0492 5.73443 16.4379L3.10918 13.7773C1.59017 12.2378 2.42838 9.55566 4.5276 9.23852L8.1556 8.69041C8.9892 8.56447 9.70982 8.02011 10.0826 7.23475L11.7051 3.81669Z" stroke="#A2A8B7" stroke-width="1.5" stroke-linejoin="round"/>
</g>
</svg>
