<svg width="28" height="28" viewBox="0 0 28 28" fill="none" xmlns="http://www.w3.org/2000/svg">
<path d="M14 25.6666C20.4433 25.6666 25.6667 20.4433 25.6667 14C25.6667 7.55666 20.4433 2.33331 14 2.33331" stroke="#A2A8B7" stroke-width="1.5" stroke-linecap="round"/>
<path d="M13.9997 25.6666C7.55635 25.6666 2.33301 20.4433 2.33301 14C2.33301 7.55666 7.55635 2.33331 13.9997 2.33331" stroke="#A2A8B7" stroke-width="1.5" stroke-linecap="round" stroke-linejoin="round" stroke-dasharray="0.5 3"/>
<path d="M15.75 14C15.75 14.9665 14.9665 15.75 14 15.75C13.0335 15.75 12.25 14.9665 12.25 14C12.25 13.0335 13.0335 12.25 14 12.25C14.9665 12.25 15.75 13.0335 15.75 14Z" stroke="#A2A8B7" stroke-width="1.5"/>
<path d="M14 15.75L14 17.7917V18.6667" stroke="#A2A8B7" stroke-width="1.5" stroke-linecap="round" stroke-linejoin="round"/>
<path d="M14 7V9.91667L14 12.25" stroke="#A2A8B7" stroke-width="1.5" stroke-linecap="round" stroke-linejoin="round"/>
</svg>
