<svg width="28" height="28" viewBox="0 0 28 28" fill="none" xmlns="http://www.w3.org/2000/svg">
<g id="Icon/Chart/Outline">
<path id="Vector" d="M16.9168 9.75004C16.5026 9.75004 16.1668 10.0858 16.1668 10.5C16.1668 10.9143 16.5026 11.25 16.9168 11.25V9.75004ZM20.156 11.145L19.4851 11.4804H19.4851L20.156 11.145ZM20.3293 13.1688C20.5146 13.5393 20.9651 13.6894 21.3356 13.5042C21.7061 13.319 21.8562 12.8684 21.671 12.498L20.3293 13.1688ZM19.8774 11.4946L20.2886 10.8673L19.0341 10.0449L18.6229 10.6722L19.8774 11.4946ZM16.0587 15.9517L15.4314 15.5405L16.0587 15.9517ZM14.0849 15.9162L13.4433 16.3046L14.0849 15.9162ZM11.8587 12.2384L11.2171 12.6268V12.6268L11.8587 12.2384ZM9.83568 12.2853L9.17679 11.927L9.83568 12.2853ZM6.34127 17.1418C6.1434 17.5057 6.27799 17.9611 6.64189 18.1589C7.00579 18.3568 7.46119 18.2222 7.65906 17.8583L6.34127 17.1418ZM7.00016 3.08337H21.0002V1.58337H7.00016V3.08337ZM24.9168 7.00004V21H26.4168V7.00004H24.9168ZM21.0002 24.9167H7.00016V26.4167H21.0002V24.9167ZM3.0835 21V7.00004H1.5835V21H3.0835ZM7.00016 24.9167C4.83705 24.9167 3.0835 23.1632 3.0835 21H1.5835C1.5835 23.9916 4.00862 26.4167 7.00016 26.4167V24.9167ZM24.9168 21C24.9168 23.1632 23.1633 24.9167 21.0002 24.9167V26.4167C23.9917 26.4167 26.4168 23.9916 26.4168 21H24.9168ZM21.0002 3.08337C23.1633 3.08337 24.9168 4.83693 24.9168 7.00004H26.4168C26.4168 4.0085 23.9917 1.58337 21.0002 1.58337V3.08337ZM7.00016 1.58337C4.00862 1.58337 1.5835 4.0085 1.5835 7.00004H3.0835C3.0835 4.83693 4.83705 3.08337 7.00016 3.08337V1.58337ZM16.9168 11.25H19.1125V9.75004H16.9168V11.25ZM19.4851 11.4804L20.3293 13.1688L21.671 12.498L20.8268 10.8095L19.4851 11.4804ZM19.1125 11.25C19.2703 11.25 19.4146 11.3392 19.4851 11.4804L20.8268 10.8095C20.5021 10.1602 19.8384 9.75004 19.1125 9.75004V11.25ZM18.6229 10.6722L15.4314 15.5405L16.6859 16.3629L19.8774 11.4946L18.6229 10.6722ZM14.7265 15.5278L12.5003 11.8501L11.2171 12.6268L13.4433 16.3046L14.7265 15.5278ZM9.17679 11.927L6.34127 17.1418L7.65906 17.8583L10.4946 12.6436L9.17679 11.927ZM12.5003 11.8501C11.7341 10.5843 9.88358 10.6272 9.17679 11.927L10.4946 12.6436C10.6482 12.361 11.0505 12.3517 11.2171 12.6268L12.5003 11.8501ZM15.4314 15.5405C15.2633 15.7969 14.8853 15.7901 14.7265 15.5278L13.4433 16.3046C14.1736 17.511 15.9127 17.5423 16.6859 16.3629L15.4314 15.5405Z" fill="#A2A8B7"/>
</g>
</svg>
