<svg width="28" height="28" viewBox="0 0 28 28" fill="none" xmlns="http://www.w3.org/2000/svg">
<g id="Icon/Video Tick/Outline">
<path id="Vector" d="M15.7095 8.91735C15.4797 9.262 15.5728 9.72765 15.9175 9.95741C16.2621 10.1872 16.7278 10.094 16.9575 9.7494L15.7095 8.91735ZM12.2909 2.7494C12.5206 2.40475 12.4275 1.9391 12.0829 1.70934C11.7382 1.47957 11.2726 1.5727 11.0428 1.91735L12.2909 2.7494ZM6.37613 8.91735C6.14636 9.262 6.23949 9.72765 6.58414 9.95741C6.92878 10.1872 7.39444 10.094 7.6242 9.7494L6.37613 8.91735ZM10.9687 15.7477C10.6452 15.489 10.1733 15.5414 9.91451 15.8649C9.65575 16.1883 9.7082 16.6603 10.0316 16.919L10.9687 15.7477ZM12.5451 17.9693L13.0136 17.3837L12.5451 17.9693ZM14.1519 17.8266L13.5875 17.3327V17.3327L14.1519 17.8266ZM18.0646 14.4939C18.3374 14.1822 18.3058 13.7084 17.994 13.4356C17.6823 13.1628 17.2085 13.1944 16.9357 13.5062L18.0646 14.4939ZM7.00016 3.08337H21.0002V1.58337H7.00016V3.08337ZM3.0835 21V7.00004H1.5835V21H3.0835ZM24.9168 7.00004V21H26.4168V7.00004H24.9168ZM21.0002 24.9167H7.00016V26.4167H21.0002V24.9167ZM24.9168 21C24.9168 23.1632 23.1633 24.9167 21.0002 24.9167V26.4167C23.9917 26.4167 26.4168 23.9916 26.4168 21H24.9168ZM1.5835 21C1.5835 23.9916 4.00862 26.4167 7.00016 26.4167V24.9167C4.83705 24.9167 3.0835 23.1632 3.0835 21H1.5835ZM21.0002 3.08337C23.1633 3.08337 24.9168 4.83693 24.9168 7.00004H26.4168C26.4168 4.0085 23.9917 1.58337 21.0002 1.58337V3.08337ZM7.00016 1.58337C4.00862 1.58337 1.5835 4.0085 1.5835 7.00004H3.0835C3.0835 4.83693 4.83705 3.08337 7.00016 3.08337V1.58337ZM2.3335 10.0834H25.6668V8.58337H2.3335V10.0834ZM20.3761 1.91735L15.7095 8.91735L16.9575 9.7494L21.6242 2.7494L20.3761 1.91735ZM11.0428 1.91735L6.37613 8.91735L7.6242 9.7494L12.2909 2.7494L11.0428 1.91735ZM10.0316 16.919L12.0766 18.555L13.0136 17.3837L10.9687 15.7477L10.0316 16.919ZM14.7164 18.3205L18.0646 14.4939L16.9357 13.5062L13.5875 17.3327L14.7164 18.3205ZM12.0766 18.555C12.8775 19.1957 14.0409 19.0924 14.7164 18.3205L13.5875 17.3327C13.4407 17.5005 13.1878 17.523 13.0136 17.3837L12.0766 18.555Z" fill="#A2A8B7"/>
</g>
</svg>
