<svg width="28" height="28" viewBox="0 0 28 28" fill="none" xmlns="http://www.w3.org/2000/svg">
<g id="Icon/Users 2/Outline">
<ellipse id="Ellipse 295" cx="14" cy="19.25" rx="7" ry="2.91667" stroke="#A2A8B7" stroke-width="1.5" stroke-linejoin="round"/>
<ellipse id="Ellipse 296" cx="14" cy="9.33334" rx="3.5" ry="3.5" stroke="#A2A8B7" stroke-width="1.5" stroke-linejoin="round"/>
<path id="Subtract" fill-rule="evenodd" clip-rule="evenodd" d="M7.27554 15.609C5.93893 15.6868 4.71868 15.9381 3.76301 16.3204C3.1829 16.5524 2.66312 16.8475 2.27609 17.2135C1.88748 17.581 1.58301 18.0718 1.58301 18.6667C1.58301 19.2615 1.88748 19.7523 2.27609 20.1198C2.66312 20.4858 3.1829 20.7809 3.76301 21.0129C4.29626 21.2262 4.9119 21.3988 5.58416 21.5231C5.12053 20.981 4.81758 20.3872 4.71003 19.7613C4.57341 19.7166 4.44326 19.6695 4.32009 19.6202C3.84458 19.43 3.51009 19.2223 3.30675 19.03C3.105 18.8392 3.08301 18.7162 3.08301 18.6667C3.08301 18.6172 3.105 18.4941 3.30675 18.3033C3.51009 18.111 3.84458 17.9033 4.32009 17.7131C4.59711 17.6023 4.90944 17.5024 5.25127 17.4166C5.70218 16.7361 6.39685 16.1224 7.27554 15.609Z" fill="#A2A8B7"/>
<path id="Subtract_2" fill-rule="evenodd" clip-rule="evenodd" d="M23.2901 19.7613C23.1826 20.3872 22.8796 20.981 22.416 21.5231C23.0883 21.3988 23.7039 21.2262 24.2371 21.0129C24.8172 20.7809 25.337 20.4858 25.7241 20.1198C26.1127 19.7523 26.4171 19.2615 26.4171 18.6667C26.4171 18.0718 26.1127 17.581 25.7241 17.2135C25.337 16.8475 24.8172 16.5524 24.2371 16.3204C23.2815 15.9381 22.0612 15.6868 20.7246 15.609C21.6033 16.1224 22.298 16.7361 22.7489 17.4166C23.0907 17.5024 23.403 17.6023 23.6801 17.7131C24.1556 17.9033 24.4901 18.111 24.6934 18.3033C24.8952 18.4941 24.9171 18.6172 24.9171 18.6667C24.9171 18.7162 24.8952 18.8392 24.6934 19.03C24.4901 19.2223 24.1556 19.43 23.6801 19.6202C23.5569 19.6695 23.4267 19.7166 23.2901 19.7613Z" fill="#A2A8B7"/>
<path id="Subtract_3" fill-rule="evenodd" clip-rule="evenodd" d="M19.2113 11.9566C18.9819 12.4114 18.6947 12.8321 18.3594 13.2091C18.7972 13.4477 19.2992 13.5833 19.833 13.5833C21.5359 13.5833 22.9163 12.2029 22.9163 10.5C22.9163 8.79711 21.5359 7.41666 19.833 7.41666C19.7261 7.41666 19.6205 7.4221 19.5164 7.43272C19.6784 7.90306 19.7819 8.40062 19.8183 8.91672C19.8232 8.91668 19.8281 8.91666 19.833 8.91666C20.7074 8.91666 21.4163 9.62554 21.4163 10.5C21.4163 11.3744 20.7074 12.0833 19.833 12.0833C19.6123 12.0833 19.4021 12.0382 19.2113 11.9566Z" fill="#A2A8B7"/>
<path id="Subtract_4" fill-rule="evenodd" clip-rule="evenodd" d="M8.48297 7.43272C8.37887 7.4221 8.27324 7.41666 8.16634 7.41666C6.46346 7.41666 5.08301 8.79711 5.08301 10.5C5.08301 12.2029 6.46346 13.5833 8.16634 13.5833C8.70008 13.5833 9.20214 13.4477 9.63995 13.2091C9.30463 12.8321 9.01745 12.4114 8.78806 11.9566C8.59719 12.0382 8.38704 12.0833 8.16634 12.0833C7.29189 12.0833 6.58301 11.3744 6.58301 10.5C6.58301 9.62554 7.29189 8.91666 8.16634 8.91666C8.17123 8.91666 8.17611 8.91668 8.18099 8.91672C8.21741 8.40062 8.32096 7.90306 8.48297 7.43272Z" fill="#A2A8B7"/>
</g>
</svg>
