<svg width="24" height="18" viewBox="0 0 24 18" fill="none" xmlns="http://www.w3.org/2000/svg">
<g id="user">
<path id="combo shape" fill-rule="evenodd" clip-rule="evenodd" d="M12.0002 7.83334C13.9332 7.83334 15.5002 6.26634 15.5002 4.33334C15.5002 2.40035 13.9332 0.833344 12.0002 0.833344C10.0672 0.833344 8.50016 2.40035 8.50016 4.33334C8.50016 6.26634 10.0672 7.83334 12.0002 7.83334ZM12.0002 17.1667C15.8662 17.1667 19.0002 15.5997 19.0002 13.6667C19.0002 11.7337 15.8662 10.1667 12.0002 10.1667C8.13417 10.1667 5.00016 11.7337 5.00016 13.6667C5.00016 15.5997 8.13417 17.1667 12.0002 17.1667ZM5.44543 10.1889C2.56415 10.3666 0.333496 11.5948 0.333496 13.0835C0.333496 14.3108 1.84957 15.361 3.9964 15.7916C3.51667 15.142 3.25016 14.4231 3.25016 13.6668C3.25016 12.3328 4.07938 11.115 5.44543 10.1889ZM20.7502 13.6668C20.7502 14.4231 20.4837 15.142 20.004 15.7916C22.1508 15.361 23.6669 14.3108 23.6669 13.0835C23.6669 11.5948 21.4362 10.3666 18.555 10.1889C19.921 11.115 20.7502 12.3328 20.7502 13.6668ZM16.3381 7.2913C16.9136 6.44898 17.2501 5.43046 17.2501 4.33334C17.2501 3.96928 17.2131 3.61386 17.1425 3.27067C17.3609 3.20308 17.5929 3.16668 17.8335 3.16668C19.1221 3.16668 20.1668 4.21135 20.1668 5.50001C20.1668 6.78867 19.1221 7.83334 17.8335 7.83334C17.2645 7.83334 16.7431 7.62969 16.3381 7.2913ZM6.16683 3.16668C6.40738 3.16668 6.63943 3.20308 6.85777 3.27067C6.78722 3.61386 6.75016 3.96928 6.75016 4.33334C6.75016 5.43046 7.08669 6.44898 7.66215 7.2913C7.25722 7.62969 6.73581 7.83334 6.16683 7.83334C4.87817 7.83334 3.8335 6.78867 3.8335 5.50001C3.8335 4.21135 4.87817 3.16668 6.16683 3.16668Z" fill="white"/>
</g>
</svg>
