<svg width="24" height="24" viewBox="0 0 24 24" fill="none" xmlns="http://www.w3.org/2000/svg">
<g id="font-rectangle">
<path id="Subtract" fill-rule="evenodd" clip-rule="evenodd" d="M5.00016 0.333344C2.42283 0.333344 0.333496 2.42268 0.333496 5.00001V19C0.333496 21.5773 2.42283 23.6667 5.00016 23.6667H19.0002C21.5775 23.6667 23.6668 21.5773 23.6668 19V5.00001C23.6668 2.42268 21.5775 0.333344 19.0002 0.333344H5.00016ZM12.0002 4.12501C12.3534 4.12501 12.672 4.33741 12.8079 4.66347L18.6412 18.6635C18.8271 19.1095 18.6161 19.6218 18.17 19.8077C17.724 19.9936 17.2117 19.7826 17.0258 19.3365L15.3057 15.2083H8.69462L6.97454 19.3365C6.78867 19.7826 6.27638 19.9936 5.83031 19.8077C5.38423 19.6218 5.17329 19.1095 5.35915 18.6635L11.1925 4.66347C11.3283 4.33741 11.6469 4.12501 12.0002 4.12501ZM12.0002 7.27501L14.5766 13.4583H9.42379L12.0002 7.27501Z" fill="white"/>
</g>
</svg>
