<svg width="22" height="26" viewBox="0 0 22 26" fill="none" xmlns="http://www.w3.org/2000/svg">
<g id="light mode">
<path id="combo shape" fill-rule="evenodd" clip-rule="evenodd" d="M11.0004 0.458344C11.4837 0.458344 11.8754 0.850094 11.8754 1.33334V3.66668C11.8754 4.14993 11.4837 4.54168 11.0004 4.54168C10.5172 4.54168 10.1254 4.14993 10.1254 3.66668V1.33334C10.1254 0.850094 10.5172 0.458344 11.0004 0.458344ZM16.8337 13C16.8337 16.2217 14.2221 18.8333 11.0004 18.8333C7.77874 18.8333 5.16707 16.2217 5.16707 13C5.16707 9.77835 7.77874 7.16668 11.0004 7.16668C14.2221 7.16668 16.8337 9.77835 16.8337 13ZM11.8754 22.3333C11.8754 21.8501 11.4837 21.4583 11.0004 21.4583C10.5172 21.4583 10.1254 21.8501 10.1254 22.3333V24.6667C10.1254 25.1499 10.5172 25.5417 11.0004 25.5417C11.4837 25.5417 11.8754 25.1499 11.8754 24.6667V22.3333ZM21.8616 6.7293C22.1032 7.14781 21.9598 7.68295 21.5413 7.92457L19.5206 9.09124C19.1021 9.33286 18.5669 9.18947 18.3253 8.77097C18.0837 8.35246 18.2271 7.81732 18.6456 7.57569L20.6663 6.40903C21.0848 6.1674 21.6199 6.31079 21.8616 6.7293ZM3.35486 18.4246C3.77336 18.1829 3.91675 17.6478 3.67513 17.2293C3.4335 16.8108 2.89836 16.6674 2.47986 16.909L0.459131 18.0757C0.0406244 18.3173 -0.102766 18.8525 0.138858 19.271C0.380483 19.6895 0.915624 19.8329 1.33413 19.5912L3.35486 18.4246ZM0.138956 6.72934C0.38058 6.31083 0.915722 6.16744 1.33423 6.40907L3.35495 7.57573C3.77346 7.81736 3.91685 8.3525 3.67523 8.77101C3.4336 9.18951 2.89846 9.3329 2.47995 9.09128L0.459228 7.92461C0.0407218 7.68299 -0.102669 7.14784 0.138956 6.72934ZM19.5207 16.9088C19.1022 16.6671 18.567 16.8105 18.3254 17.229C18.0838 17.6475 18.2272 18.1827 18.6457 18.4243L20.6664 19.591C21.0849 19.8326 21.6201 19.6892 21.8617 19.2707C22.1033 18.8522 21.9599 18.3171 21.5414 18.0754L19.5207 16.9088Z" fill="#23272E"/>
</g>
</svg>
