<svg width="28" height="28" viewBox="0 0 28 28" fill="none" xmlns="http://www.w3.org/2000/svg">
<g id="Icon/Log out/Outline">
<path id="Vector 773" d="M21 16.3333L22.6262 14.7071C23.0168 14.3166 23.0168 13.6834 22.6262 13.2929L21 11.6666" stroke="#0385CA" stroke-width="1.5" stroke-linecap="round" stroke-linejoin="round"/>
<path id="Vector" d="M22.167 14L15.167 14M4.66699 20.144V8.47738M18.667 20.1441C18.667 21.4327 17.6223 22.4774 16.3337 22.4774H11.667M18.667 8.47738C18.667 7.18872 17.6223 6.14405 16.3337 6.14405H11.667M5.70603 23.1701L8.03936 24.7256C9.58999 25.7594 11.667 24.6478 11.667 22.7842V5.83726C11.667 3.97363 9.58999 2.86205 8.03936 3.89581L5.70603 5.45136C5.05689 5.88412 4.66699 6.61266 4.66699 7.39281V21.2286C4.66699 22.0088 5.05689 22.7373 5.70603 23.1701Z" stroke="#0385CA" stroke-width="1.5" stroke-linecap="round"/>
</g>
</svg>
