<svg width="24" height="24" viewBox="0 0 24 24" fill="none" xmlns="http://www.w3.org/2000/svg">
<g id="night mode">
<g id="Vector">
<path d="M19.3831 15.3468C13.4572 15.3468 8.65324 10.5428 8.65324 4.6169C8.65324 3.53287 8.814 2.48639 9.11296 1.5C4.70713 2.83538 1.5 6.92822 1.5 11.7701C1.5 17.6961 6.30392 22.5 12.2299 22.5C17.0718 22.5 21.1646 19.2929 22.5 14.887C21.5136 15.186 20.4671 15.3468 19.3831 15.3468Z" fill="white"/>
<path d="M9.11296 1.5L9.83072 1.71755C9.91097 1.45277 9.83893 1.16531 9.64329 0.96967C9.44766 0.774031 9.1602 0.701991 8.89542 0.782244L9.11296 1.5ZM22.5 14.887L23.2178 15.1046C23.298 14.8398 23.226 14.5523 23.0303 14.3567C22.8347 14.1611 22.5472 14.089 22.2825 14.1693L22.5 14.887ZM7.90324 4.6169C7.90324 10.957 13.0429 16.0968 19.3831 16.0968V14.5968C13.8714 14.5968 9.40324 10.1286 9.40324 4.6169H7.90324ZM0.75 11.7701C0.75 18.1103 5.88971 23.25 12.2299 23.25V21.75C6.71814 21.75 2.25 17.2819 2.25 11.7701H0.75ZM8.89542 0.782244C4.1822 2.21078 0.75 6.58866 0.75 11.7701H2.25C2.25 7.26778 5.23205 3.45997 9.33051 2.21776L8.89542 0.782244ZM8.39521 1.28245C8.0751 2.33861 7.90324 3.45836 7.90324 4.6169H9.40324C9.40324 3.60738 9.5529 2.63418 9.83072 1.71755L8.39521 1.28245ZM12.2299 23.25C17.4113 23.25 21.7892 19.8178 23.2178 15.1046L21.7822 14.6695C20.54 18.7679 16.7322 21.75 12.2299 21.75V23.25ZM19.3831 16.0968C20.5416 16.0968 21.6614 15.9249 22.7175 15.6048L22.2825 14.1693C21.3658 14.4471 20.3926 14.5968 19.3831 14.5968V16.0968Z" fill="white"/>
</g>
</g>
</svg>
