<svg width="28" height="28" viewBox="0 0 28 28" fill="none" xmlns="http://www.w3.org/2000/svg">
<g id="Icon/Playlist/Outline">
<path id="Vector" d="M3.5 23.3333V7C3.5 4.42267 5.58934 2.33333 8.16667 2.33333H19.8333C22.4107 2.33333 24.5 4.42267 24.5 7V16.3333C24.5 18.9107 22.4107 21 19.8333 21H5.83333C4.54467 21 3.5 22.0447 3.5 23.3333ZM3.5 23.3333C3.5 24.622 4.54467 25.6667 5.83333 25.6667H24.5M13.0326 15.067L16.7028 13.2319C17.9927 12.587 17.9927 10.7463 16.7028 10.1014L13.0326 8.26631C11.869 7.68452 10.5 8.53064 10.5 9.83156V13.5018C10.5 14.8027 11.869 15.6488 13.0326 15.067Z" stroke="#A2A8B7" stroke-width="1.5" stroke-linecap="round" stroke-linejoin="round"/>
</g>
</svg>
