<svg width="22" height="24" viewBox="0 0 22 24" fill="none" xmlns="http://www.w3.org/2000/svg">
<g id="playlist">
<path id="Subtract" fill-rule="evenodd" clip-rule="evenodd" d="M6.04167 0.333328C2.98109 0.333328 0.5 2.81442 0.5 5.875V20.4583C0.5 22.2302 1.93642 23.6667 3.70833 23.6667H20.625C21.1082 23.6667 21.5 23.2749 21.5 22.7917C21.5 22.3084 21.1082 21.9167 20.625 21.9167H3.70833C2.90292 21.9167 2.25 21.2637 2.25 20.4583C2.25 19.6529 2.90292 19 3.70833 19H15.9583C19.0189 19 21.5 16.5189 21.5 13.4583V5.875C21.5 2.81442 19.0189 0.333328 15.9583 0.333328H6.04167ZM9.67082 13.2479L14.1501 11.0083C15.2556 10.4555 15.2556 8.87781 14.1501 8.32502L9.67082 6.0854C8.67347 5.58673 7.5 6.31197 7.5 7.42705V9.66666V11.9063C7.5 13.0213 8.67347 13.7466 9.67082 13.2479Z" fill="white"/>
</g>
</svg>
