<svg width="44" height="44" viewBox="0 0 44 44" fill="none" xmlns="http://www.w3.org/2000/svg">
<rect width="44" height="44" rx="12" fill="#0385CA"/>
<path fill-rule="evenodd" clip-rule="evenodd" d="M27.8333 12.3335V14.9077C26.1389 13.8569 24.1403 13.2502 22 13.2502C19.8596 13.2502 17.861 13.8569 16.1666 14.9077V12.3335C16.1666 11.2289 17.0621 10.3335 18.1666 10.3335H25.8333C26.9379 10.3335 27.8333 11.2289 27.8333 12.3335ZM31.3333 24.3335C31.3333 29.4882 27.1546 33.6668 22 33.6668C16.8453 33.6668 12.6666 29.4882 12.6666 24.3335C12.6666 19.1788 16.8453 15.0002 22 15.0002C27.1546 15.0002 31.3333 19.1788 31.3333 24.3335ZM22.918 20.2602L23.567 21.6274C23.7161 21.9415 24.0043 22.1593 24.3378 22.2096L25.789 22.4289C26.6287 22.5557 26.964 23.6286 26.3564 24.2444L25.3063 25.3086C25.065 25.5532 24.9549 25.9055 25.0118 26.2508L25.2597 27.7535C25.4032 28.623 24.5254 29.2861 23.7743 28.8755L22.4763 28.166C22.1781 28.003 21.8218 28.003 21.5236 28.166L20.2256 28.8755C19.4745 29.2861 18.5968 28.623 18.7402 27.7535L18.9881 26.2508C19.045 25.9055 18.9349 25.5532 18.6937 25.3086L17.6436 24.2444C17.036 23.6286 17.3712 22.5557 18.2109 22.4289L19.6621 22.2096C19.9956 22.1593 20.2838 21.9415 20.4329 21.6274L21.0819 20.2602C21.4575 19.4691 22.5425 19.4691 22.918 20.2602Z" fill="white"/>
</svg>
