<svg width="20" height="20" viewBox="0 0 20 20" fill="none" xmlns="http://www.w3.org/2000/svg">
<g id="setting">
<path id="Subtract" fill-rule="evenodd" clip-rule="evenodd" d="M9.00993 0.666687H10.9897C12.0832 0.666687 12.9695 1.50242 12.9695 2.53335C12.9695 3.71311 14.2318 4.46316 15.268 3.89911L15.3732 3.84182C16.3202 3.32636 17.531 3.63226 18.0777 4.52507L19.0676 6.14165C19.6143 7.03446 19.2899 8.1761 18.3429 8.69156C17.3063 9.25587 17.3063 10.7442 18.3429 11.3085C19.2899 11.8239 19.6143 12.9656 19.0676 13.8584L18.0777 15.475C17.531 16.3678 16.3202 16.6737 15.3732 16.1582L15.268 16.1009C14.2318 15.5369 12.9695 16.2869 12.9695 17.4667C12.9695 18.4976 12.0832 19.3334 10.9897 19.3334H9.00993C7.91652 19.3334 7.03013 18.4976 7.03013 17.4667C7.03013 16.2869 5.76786 15.5369 4.73169 16.1009L4.62645 16.1582C3.67952 16.6737 2.46869 16.3678 1.92198 15.475L0.932078 13.8584C0.38537 12.9656 0.709811 11.824 1.65674 11.3085C2.6934 10.7442 2.6934 9.25587 1.65674 8.69155C0.709812 8.17609 0.385371 7.03445 0.932079 6.14164L1.92198 4.52506C2.46869 3.63224 3.67952 3.32634 4.62645 3.84181L4.73169 3.8991C5.76786 4.46315 7.03013 3.7131 7.03013 2.53335C7.03013 1.50242 7.91652 0.666687 9.00993 0.666687ZM9.99985 13.5C11.9328 13.5 13.4998 11.933 13.4998 10C13.4998 8.06702 11.9328 6.50002 9.99985 6.50002C8.06685 6.50002 6.49985 8.06702 6.49985 10C6.49985 11.933 8.06685 13.5 9.99985 13.5Z" fill="white"/>
</g>
</svg>
