<svg width="28" height="28" viewBox="0 0 28 28" fill="none" xmlns="http://www.w3.org/2000/svg">
<g id="Icon/Settings/Outline">
<path id="Vector" d="M14.9902 4.66669H13.0104C11.917 4.66669 11.0306 5.50242 11.0306 6.53335C11.0306 7.7131 9.76834 8.46315 8.73217 7.8991L8.62693 7.84181C7.68 7.32634 6.46917 7.63224 5.92246 8.52506L4.93256 10.1416C4.38585 11.0344 4.71029 12.1761 5.65722 12.6916C6.69388 13.2559 6.69388 14.7442 5.65722 15.3085C4.71029 15.824 4.38585 16.9656 4.93256 17.8584L5.92246 19.475C6.46917 20.3678 7.68 20.6737 8.62692 20.1582L8.73217 20.1009C9.76834 19.5369 11.0306 20.2869 11.0306 21.4667C11.0306 22.4976 11.917 23.3334 13.0104 23.3334H14.9902C16.0836 23.3334 16.97 22.4976 16.97 21.4667C16.97 20.2869 18.2323 19.5369 19.2685 20.1009L19.3737 20.1582C20.3206 20.6737 21.5315 20.3678 22.0782 19.475L23.0681 17.8584C23.6148 16.9656 23.2903 15.8239 22.3434 15.3085C21.3068 14.7442 21.3068 13.2559 22.3434 12.6916C23.2903 12.1761 23.6148 11.0345 23.0681 10.1417L22.0782 8.52507C21.5315 7.63226 20.3206 7.32636 19.3737 7.84182L19.2685 7.89911C18.2323 8.46316 16.97 7.71311 16.97 6.53335C16.97 5.50242 16.0836 4.66669 14.9902 4.66669Z" stroke="#A2A8B7" stroke-width="1.5" stroke-linejoin="round"/>
<circle id="Ellipse 91" cx="14" cy="14" r="3.5" stroke="#A2A8B7" stroke-width="1.5"/>
</g>
</svg>
