<svg width="28" height="28" viewBox="0 0 28 28" fill="none" xmlns="http://www.w3.org/2000/svg">
<g id="Icon/User Rectangle/Outline">
<circle id="Ellipse 321" cx="3.5" cy="3.5" r="3.5" transform="matrix(1 0 0 -1 10.5 14)" stroke="#A2A8B7" stroke-width="1.5" strokeLinejoin="round"/>
<path id="Vector" d="M22.1651 25.52C24.1785 25.0024 25.6663 23.175 25.6663 21V7C25.6663 4.42267 23.577 2.33334 20.9997 2.33334H6.99968C4.42235 2.33334 2.33301 4.42267 2.33301 7V21C2.33301 23.1749 3.82088 25.0024 5.8343 25.52M22.1651 25.52C21.7926 25.6157 21.4021 25.6667 20.9997 25.6667H6.99967C6.59729 25.6667 6.2068 25.6157 5.8343 25.52M22.1651 25.52C22.0868 21.0773 18.461 17.5 13.9997 17.5C9.53835 17.5 5.91255 21.0773 5.8343 25.52" stroke="#A2A8B7" stroke-width="1.5"/>
</g>
</svg>
