<svg width="28" height="28" viewBox="0 0 28 28" fill="none" xmlns="http://www.w3.org/2000/svg">
<g id="Icon/User Rectangle/Solid">
<path id="Subtract" fill-rule="evenodd" clip-rule="evenodd" d="M21.0002 2.33334H7.00016C4.42283 2.33334 2.3335 4.42267 2.3335 7V21C2.3335 23.1749 3.82137 25.0024 5.83479 25.52C6.20729 25.6157 6.59778 25.6667 7.00016 25.6667H21.0002C21.4025 25.6667 21.793 25.6157 22.1655 25.52C24.179 25.0024 25.6668 23.1749 25.6668 21V7C25.6668 4.42267 23.5775 2.33334 21.0002 2.33334ZM14.0002 15.1667C16.8721 15.1667 19.3415 17.0405 20.4303 19.725C20.9408 20.9836 19.8413 22.1667 18.4831 22.1667H9.51727C8.15903 22.1667 7.05957 20.9836 7.57007 19.725C8.65886 17.0405 11.1282 15.1667 14.0002 15.1667ZM14.0002 5.83334C15.9332 5.83334 17.5002 7.40034 17.5002 9.33334C17.5002 11.2663 15.9332 12.8333 14.0002 12.8333C12.0672 12.8333 10.5002 11.2663 10.5002 9.33334C10.5002 7.40034 12.0672 5.83334 14.0002 5.83334Z" fill="white"/>
</g>
</svg>
